<svg version="1.1" id="Layer_1" xmlns="http://www.w3.org/2000/svg" xmlns:xlink="http://www.w3.org/1999/xlink" x="0px" y="0px"
	 width="600px" height="600px" viewBox="0 0 600 600" style="enable-background:new 0 0 600 600;" xml:space="preserve">
<style type="text/css">
<![CDATA[
	.st0{font-family:'BellMT';}
	.st1{fill:#879E45;}
	.st2{fill:#221F1F;stroke:#330033;stroke-miterlimit:10;}
	.st3{fill:#999999;stroke:#330033;stroke-miterlimit:10;}
	.st4{fill:#FFFFFF;}
	.st5{fill:#FFFFFF;stroke:#330033;stroke-miterlimit:10;}
	.st6{fill:none;}
	.st7{fill:#333333;}
	.hut_fill{fill:#fff;}
	.hut_high_fill{fill:#0ff;}
	.map{fill:#604937;stroke:#000000;stroke-width:0.25;stroke-linecap:round;stroke-linejoin:round;stroke-miterlimit:10;}
	.st10{font-family:'Pristina-Regular';}
	.st11{font-size:21;}
	.st12{font-size:24;}
	.st13{fill-rule:evenodd;clip-rule:evenodd;fill:#999999;stroke:#330033;stroke-miterlimit:10;}
	.st14{fill:#432A11;}
	.st144{fill:#0ff;}
	.st15{fill-rule:evenodd;clip-rule:evenodd;fill:#FFFFFF;stroke:#330033;stroke-miterlimit:10;}
	.st16{fill:#455F2C;}
]]>
</style>
<symbol  id="Hut" viewBox="-35.115 -40.678 70.23 81.356">
	<g>
		<g>
			<g>
				<path class="st14" d="M-26.954-3.684c-0.173-0.025-1.499-0.295-1.239-1.578c0.548-2.708,3.3-8.203,4.75-13.336
					c0.392-1.387,0.295-3.32,0.932-4.592c2.818-5.634,4.012-12.28,4.012-12.28l1.006-3.775l4.657-1.28l2.656-0.104
					c0,0,2.355,0.294,4.056,1.048c1.697,0.756,5.748,3.733,5.748,3.733l-5.663-1.887l-4.909,1.887l-3.775-1.133
					C-14.725-36.981-22.045-2.927-26.954-3.684z"/>
				<path class="hut_fill" d="M14.434-40.315L23.41-1.109l-5.285,0.755L4.154,0.402l-19.258,1.13l-10.949-4.906l3.321-10.966l1.086-5.598
					l1.817-3.983l4.221-13.94l2.582-1.952c0,0,2.279-0.628,2.845-0.816c0.565-0.189,3.931,0.229,4.687,0.42
					c0.754,0.188,7.887-0.212,7.887-0.212l4.068,1.05l5.455-0.943H14.434z"/>
				<polygon class="st14" points="-3.021,40.047 -31.34,-5.641 -23.787,-4.508 -20.768,-6.019 -13.971,-1.866 -7.552,-5.262 
					0,-3.374 6.419,-7.527 10.195,-3.374 15.859,-4.508 22.656,-6.397 25.299,-4.132 29.83,-4.508 				"/>
				<g>
					<polygon class="st16" points="-1.254,37.669 -27.186,-9.416 -23.787,-9.796 -1.888,34.384 					"/>
					<path class="st16" d="M-1.888,31.739L-16.613-5.262l-2.643,0.376C-19.256-4.886-3.775,32.497-1.888,31.739z"/>
					<polygon class="st16" points="-0.377,32.497 -15.104,-6.773 -9.816,-6.773 0.755,30.231 					"/>
					<polygon class="st16" points="-0.754,36.271 35.115,-7.906 31.719,-8.663 -0.377,33.628 					"/>
					<polygon class="st16" points="1.133,29.098 29.452,-9.037 25.929,-8.663 0.755,26.455 					"/>
					<polygon class="st16" points="-0.377,26.455 15.859,1.156 13.216,0.778 -0.377,23.813 					"/>
					<polygon class="st16" points="-1.133,21.545 -8.307,-10.17 -5.663,-9.416 0,19.657 					"/>
					<polygon class="st16" points="0,19.657 17.746,-7.15 12.838,-6.773 -1.51,17.393 					"/>
					<polygon class="st16" points="-0.377,13.616 8.686,-4.508 3.775,-6.019 -1.133,11.729 					"/>
					<polygon class="st16" points="-1.888,6.819 -3.021,-6.773 -0.754,-7.15 -0.754,6.065 					"/>
					<polygon class="st16" points="0.755,3.044 3.775,-7.527 1.133,-7.906 0,1.156 					"/>
					<polygon class="st16" points="-3.021,40.678 -35.115,-7.906 -29.452,-7.906 -2.395,39.226 					"/>
				</g>
				<g>
					<polygon class="st1" points="-1.888,38.349 -28.695,-5.516 -25.863,-4.76 					"/>
					<path class="st1" d="M-0.188,35.138L-15.104-2.999l-2.076,0.381C-17.18-2.618-1.699,35.138-0.188,35.138z"/>
					<polygon class="st1" points="-0.377,33.628 26.809,-3.374 25.299,-4.132 -0.377,32.497 					"/>
					<polygon class="st1" points="19.068,-6.019 21.522,-4.886 0,28.531 -0.377,26.455 					"/>
					<polygon class="st1" points="-1.133,21.545 15.859,-3.563 13.971,-3.374 -1.32,20.225 					"/>
					<polygon class="st1" points="-0.565,31.174 -13.971,-6.019 -12.271,-6.207 0,29.286 					"/>
					<polygon class="st1" points="-0.188,12.104 8.686,-1.487 7.741,-1.866 -0.377,11.541 					"/>
					<polygon class="st1" points="-1.32,13.805 -5.097,-4.508 -3.209,-4.318 -0.943,12.86 					"/>
					<polygon class="st1" points="-0.754,6.065 0.944,-5.074 -0.565,-5.451 -1.133,4.178 					"/>
				</g>
				<polygon class="st14" points="-13.642,-38.204 -10.732,-38.279 -9.236,-38.204 -5.041,-38.204 -2.314,-38.623 -3.992,-37.786 
					-5.67,-36.525 -7.768,-37.155 -9.445,-35.478 -11.544,-35.478 -11.125,-33.169 -13.642,-31.492 -12.383,-28.346 
					-15.109,-26.247 -13.432,-23.101 -16.578,-21.213 -14.271,-17.856 -16.578,-17.228 -16.369,-13.031 -19.273,-13.013 
					-21.371,-11.124 -18.219,-22.085 -16.004,-29.394 -14.537,-37.155 				"/>
				<g>
					<polygon class="st14" points="2.141,-18.353 2.141,-21.878 2.014,-29.555 1.764,-33.835 2.393,-40.422 -4.342,-40.106 
						-5.162,-31.819 -6.419,-25.903 -7.929,-18.478 -5.537,-19.485 -2.768,-18.226 0,-18.982 					"/>
				</g>
			</g>
			<path class="st14" d="M-9.12-11.892l4.041-0.75l3.743,3.443l6.738-1.047l7.038,1.496l4.041-1.945l3.144,2.394l-3.293-13.175
				l-1.797-9.432l-1.946-6.289l-2.096-1.198l-4.043,0.75l-2.845-0.75l3.743,2.248l4.642-0.301l1.497,10.93
				c0,0,1.349,8.984,1.647,9.882c0.299,0.899,1.795,3.744,1.795,3.744l-5.389-0.601l-2.396,1.348l-3.444-1.196l-4.641,1.797
				l-2.546-2.546l-4.491-1.049L-9.12-11.892z"/>
		</g>
	</g>
</symbol>
    <symbol  id="Hut1" viewBox="-35.115 -40.678 70.23 81.356">
	<g>
		<g>
			<g>
				<path class="st14" d="M-26.954-3.684c-0.173-0.025-1.499-0.295-1.239-1.578c0.548-2.708,3.3-8.203,4.75-13.336
					c0.392-1.387,0.295-3.32,0.932-4.592c2.818-5.634,4.012-12.28,4.012-12.28l1.006-3.775l4.657-1.28l2.656-0.104
					c0,0,2.355,0.294,4.056,1.048c1.697,0.756,5.748,3.733,5.748,3.733l-5.663-1.887l-4.909,1.887l-3.775-1.133
					C-14.725-36.981-22.045-2.927-26.954-3.684z"/>
				<path class="hut_high_fill" d="M14.434-40.315L23.41-1.109l-5.285,0.755L4.154,0.402l-19.258,1.13l-10.949-4.906l3.321-10.966l1.086-5.598
					l1.817-3.983l4.221-13.94l2.582-1.952c0,0,2.279-0.628,2.845-0.816c0.565-0.189,3.931,0.229,4.687,0.42
					c0.754,0.188,7.887-0.212,7.887-0.212l4.068,1.05l5.455-0.943H14.434z"/>
				<polygon class="st14" points="-3.021,40.047 -31.34,-5.641 -23.787,-4.508 -20.768,-6.019 -13.971,-1.866 -7.552,-5.262 
					0,-3.374 6.419,-7.527 10.195,-3.374 15.859,-4.508 22.656,-6.397 25.299,-4.132 29.83,-4.508 				"/>
				<g>
					<polygon class="st16" points="-1.254,37.669 -27.186,-9.416 -23.787,-9.796 -1.888,34.384 					"/>
					<path class="st16" d="M-1.888,31.739L-16.613-5.262l-2.643,0.376C-19.256-4.886-3.775,32.497-1.888,31.739z"/>
					<polygon class="st16" points="-0.377,32.497 -15.104,-6.773 -9.816,-6.773 0.755,30.231 					"/>
					<polygon class="st16" points="-0.754,36.271 35.115,-7.906 31.719,-8.663 -0.377,33.628 					"/>
					<polygon class="st16" points="1.133,29.098 29.452,-9.037 25.929,-8.663 0.755,26.455 					"/>
					<polygon class="st16" points="-0.377,26.455 15.859,1.156 13.216,0.778 -0.377,23.813 					"/>
					<polygon class="st16" points="-1.133,21.545 -8.307,-10.17 -5.663,-9.416 0,19.657 					"/>
					<polygon class="st16" points="0,19.657 17.746,-7.15 12.838,-6.773 -1.51,17.393 					"/>
					<polygon class="st16" points="-0.377,13.616 8.686,-4.508 3.775,-6.019 -1.133,11.729 					"/>
					<polygon class="st16" points="-1.888,6.819 -3.021,-6.773 -0.754,-7.15 -0.754,6.065 					"/>
					<polygon class="st16" points="0.755,3.044 3.775,-7.527 1.133,-7.906 0,1.156 					"/>
					<polygon class="st16" points="-3.021,40.678 -35.115,-7.906 -29.452,-7.906 -2.395,39.226 					"/>
				</g>
				<g>
					<polygon class="st1" points="-1.888,38.349 -28.695,-5.516 -25.863,-4.76 					"/>
					<path class="st1" d="M-0.188,35.138L-15.104-2.999l-2.076,0.381C-17.18-2.618-1.699,35.138-0.188,35.138z"/>
					<polygon class="st1" points="-0.377,33.628 26.809,-3.374 25.299,-4.132 -0.377,32.497 					"/>
					<polygon class="st1" points="19.068,-6.019 21.522,-4.886 0,28.531 -0.377,26.455 					"/>
					<polygon class="st1" points="-1.133,21.545 15.859,-3.563 13.971,-3.374 -1.32,20.225 					"/>
					<polygon class="st1" points="-0.565,31.174 -13.971,-6.019 -12.271,-6.207 0,29.286 					"/>
					<polygon class="st1" points="-0.188,12.104 8.686,-1.487 7.741,-1.866 -0.377,11.541 					"/>
					<polygon class="st1" points="-1.32,13.805 -5.097,-4.508 -3.209,-4.318 -0.943,12.86 					"/>
					<polygon class="st1" points="-0.754,6.065 0.944,-5.074 -0.565,-5.451 -1.133,4.178 					"/>
				</g>
				<polygon class="st14" points="-13.642,-38.204 -10.732,-38.279 -9.236,-38.204 -5.041,-38.204 -2.314,-38.623 -3.992,-37.786 
					-5.67,-36.525 -7.768,-37.155 -9.445,-35.478 -11.544,-35.478 -11.125,-33.169 -13.642,-31.492 -12.383,-28.346 
					-15.109,-26.247 -13.432,-23.101 -16.578,-21.213 -14.271,-17.856 -16.578,-17.228 -16.369,-13.031 -19.273,-13.013 
					-21.371,-11.124 -18.219,-22.085 -16.004,-29.394 -14.537,-37.155 				"/>
				<g>
					<polygon class="st144" points="2.141,-18.353 2.141,-21.878 2.014,-29.555 1.764,-33.835 2.393,-40.422 -4.342,-40.106 
						-5.162,-31.819 -6.419,-25.903 -7.929,-18.478 -5.537,-19.485 -2.768,-18.226 0,-18.982 					"/>
				</g>
			</g>
			<path class="st14" d="M-9.12-11.892l4.041-0.75l3.743,3.443l6.738-1.047l7.038,1.496l4.041-1.945l3.144,2.394l-3.293-13.175
				l-1.797-9.432l-1.946-6.289l-2.096-1.198l-4.043,0.75l-2.845-0.75l3.743,2.248l4.642-0.301l1.497,10.93
				c0,0,1.349,8.984,1.647,9.882c0.299,0.899,1.795,3.744,1.795,3.744l-5.389-0.601l-2.396,1.348l-3.444-1.196l-4.641,1.797
				l-2.546-2.546l-4.491-1.049L-9.12-11.892z"/>
		</g>
	</g>
</symbol>
<symbol  id="Ribbon" viewBox="-96.506 -33.285 193.011 65.641">
	<path class="st15" d="M93.169-29.902c-0.635,0.363-1.27,0.724-1.906,1.08C77.54-21.148,63.091-15.33,48.265-11.371
		c-0.285,0.076-0.57,0.151-0.855,0.227c0,0.281,0,0.564,0,0.846c0,7.581,0,15.162,0,22.743c0,0.282,0,0.564,0,0.847
		c0.285-0.075,0.57-0.15,0.855-0.227c14.869-3.971,29.361-9.812,43.118-17.52c0.637-0.356,1.272-0.718,1.905-1.082
		c-0.447-0.225-0.896-0.449-1.346-0.678c-3.371-1.708-6.787-3.529-10.242-5.462c3.414-5.229,6.789-10.567,10.121-16.014
		C92.271-28.428,92.72-29.164,93.169-29.902L93.169-29.902z"/>
	<path class="st15" d="M-46.92-11.016c-0.286-0.076-0.571-0.149-0.856-0.225c-14.997-3.962-29.614-9.824-43.486-17.582
		c-0.637-0.356-1.273-0.717-1.906-1.082c0.447,0.74,0.896,1.477,1.347,2.214c3.332,5.446,6.708,10.784,10.12,16.014
		c-3.454,1.933-6.869,3.754-10.24,5.462c-0.45,0.229-0.898,0.453-1.348,0.678c0.635,0.364,1.27,0.726,1.907,1.082
		c13.907,7.793,28.565,13.676,43.606,17.65c0.285,0.074,0.57,0.149,0.856,0.223c0-0.281,0-0.564,0-0.846c0-7.581,0-15.162,0-22.743
		C-46.92-10.451-46.92-10.734-46.92-11.016L-46.92-11.016z"/>
	<path class="st5" d="M-62.792-4.562c5.18,1.846,10.421,3.458,15.709,4.832c0-3.481,0-6.962,0-10.443
		C-52.371-8.065-57.612-6.196-62.792-4.562z"/>
	<path class="st2" d="M-47.776,12.348c0-7.581,0-15.162,0-22.742c-14.997-3.962-29.614-9.822-43.486-17.582
		c3.523,5.741,7.095,11.358,10.708,16.852c-3.655,2.066-7.267,4.008-10.829,5.824C-77.476,2.49-62.817,8.374-47.776,12.348
		 M-46.063,14.485c-0.57-0.146-1.143-0.293-1.713-0.444c-15.041-3.973-29.699-9.856-43.607-17.648
		c-1.273-0.713-2.541-1.443-3.802-2.19c0.892-0.437,1.786-0.881,2.685-1.332c3.18-1.604,6.4-3.305,9.656-5.107
		c-3.215-4.96-6.395-10.017-9.536-15.173c-0.899-1.473-1.793-2.956-2.686-4.445c1.262,0.744,2.528,1.473,3.804,2.186
		c13.872,7.76,28.489,13.62,43.486,17.582c0.57,0.15,1.143,0.3,1.713,0.444c0,0.564,0,1.129,0,1.693c0,7.581,0,15.161,0,22.742
		C-46.063,13.356-46.063,13.921-46.063,14.485L-46.063,14.485z"/>
	<path class="st5" d="M63.151-4.689c-5.177,1.856-10.416,3.479-15.702,4.865c0-3.48,0-6.962,0-10.442
		C52.735-8.173,57.975-6.313,63.151-4.689z"/>
	<path class="st2" d="M91.383-5.301c-3.563-1.816-7.175-3.758-10.829-5.824c3.613-5.493,7.186-11.11,10.709-16.852
		c-13.722,7.676-28.172,13.492-42.998,17.451c0,7.581,0,15.162,0,22.743C63.134,8.246,77.625,2.406,91.383-5.301 M95.185-5.798
		c-1.261,0.747-2.528,1.478-3.802,2.19C77.625,4.1,63.134,9.939,48.265,13.911c-0.57,0.153-1.141,0.302-1.713,0.449
		c0-0.565,0-1.129,0-1.694c0-7.58,0-15.161,0-22.742c0-0.564,0-1.129,0-1.693c0.572-0.146,1.143-0.296,1.713-0.449
		c14.826-3.959,29.276-9.775,42.998-17.451c1.274-0.713,2.541-1.441,3.803-2.186c-0.893,1.489-1.786,2.973-2.686,4.445
		c-3.141,5.156-6.32,10.213-9.535,15.173c3.256,1.803,6.476,3.504,9.656,5.107C93.399-6.679,94.293-6.234,95.185-5.798L95.185-5.798
		z"/>
	<g>
		<path class="st13" d="M63.631-4.581c-0.279,0.101-0.559,0.202-0.839,0.301C22.368,10.134-21.86,10.19-62.313-4.11
			c-0.28-0.099-0.561-0.197-0.84-0.298c0,0.28,0,0.564,0,0.845c0,7.582,0,15.163,0,22.744c0,0.282,0,0.564,0,0.846
			c0.279,0.101,0.56,0.2,0.84,0.3c40.453,14.3,84.682,14.243,125.105-0.17c0.28-0.1,0.56-0.201,0.839-0.302c0-0.282,0-0.564,0-0.847
			c0-7.581,0-15.162,0-22.743C63.631-4.017,63.631-4.3,63.631-4.581L63.631-4.581z"/>
		<path class="st3" d="M62.792,19.309c0-7.58,0-15.16,0-22.741C22.368,10.98-21.859,11.037-62.313-3.263c0,7.581,0,15.161,0,22.741
			C-21.86,33.78,22.368,33.723,62.792,19.309 M64.468,20.396c-0.557,0.205-1.116,0.406-1.676,0.606
			c-40.424,14.413-84.651,14.47-125.105,0.169c-0.559-0.197-1.119-0.397-1.677-0.602c0-0.563,0-1.128,0-1.693
			c0-7.58,0-15.161,0-22.742c0-0.564,0-1.129,0-1.693c0.558,0.204,1.118,0.405,1.677,0.603c40.453,14.3,84.682,14.243,125.105-0.17
			c0.56-0.199,1.119-0.403,1.676-0.606c0,0.564,0,1.129,0,1.693c0,7.581,0,15.16,0,22.741
			C64.468,19.268,64.468,19.832,64.468,20.396L64.468,20.396z"/>
	</g>
	<path class="st2" d="M-64.016-5.628c0.31,0.584,0.618,1.165,0.929,1.746c5.377-1.688,10.82-3.63,16.314-5.827
		c-0.316-0.552-0.632-1.104-0.948-1.657C-53.21-9.199-58.647-7.285-64.016-5.628L-64.016-5.628z"/>
	<path class="st2" d="M64.374-5.758c-0.311,0.583-0.619,1.167-0.928,1.748C58.071-5.688,52.63-7.619,47.138-9.806
		c0.316-0.552,0.633-1.104,0.949-1.657C53.573-9.308,59.007-7.405,64.374-5.758L64.374-5.758z"/>
</symbol>
<path id="map" class="map" d="M179.636,324.349c1.626,2.568,0.552,6.965,1.549,9.831c0.954,2.74,3.25,6.141,4.93,8.552
	c12.507,17.948,22.691,36.372,27.159,58.277c1.425,6.987,0.099,14.483,0.724,21.583c0.648,7.365,2.632,14.462,5.427,21.214
	c3.001,7.254,2.978,11.701,2.931,19.798c-0.043,7.584-0.577,15.548,1.351,22.962c1.649,6.344,5.629,11.837,5.566,18.615
	c-0.068,7.291-3.326,15.077-0.671,22.236c3.616,9.751,15.64,14.556,25.092,15.979c25.798,3.884,55.226,1.76,81.36,1.325
	c6.517-0.108,13.5-0.007,19.96-0.655c6.001-0.603,10.543-5.258,16.231-6.992c7.191-2.194,14.925-1.454,22.291-2.509
	c16.01-2.292,31.438-7.899,44.92-16.887c15.004-10.002,23.11-24.522,37.27-35.604c14.155-11.078,30.051-22.138,38.682-38.452
	c2.497-4.722,2.297-9.019,3.568-13.988c1.895-7.406,6.527-11.012,11.284-16.475c7.223-8.295,5.15-21.434,7.47-31.585
	c2.937-12.854,8.156-25.037,11.743-37.701c2.668-9.42,7.502-18.005,9.838-27.525c5.388-21.957-5.179-37.511-16.101-55.17
	c-9.01-14.567-19.452-25.26-26.222-40.958c-5.286-12.26-11.002-24.714-15.098-37.439c-4.279-13.295-11.855-24.077-19.085-35.971
	c-6.447-10.608-11.288-23.357-21.831-30.746c-11.769-8.249-27.281-8.751-40.639-12.794c-13.199-3.995-27.127-5.822-40.808-7.195
	c-10.25-1.028-17.869-5.441-27.597-9.152c-14.754-5.629-28.21-9.056-44.048-9.117c-9.956-0.038-20.202,0.371-30.015,2.165
	c0.931-0.087,1.87-0.184,2.801-0.255c-10.73,1.488-19.226,9.182-27.025,16.079c-4.265,3.771-8.388,7.73-12.958,11.141
	c-2.415,1.802-12.644,5.688-13.61,7.584c-0.051,0.1,0.593,0.189,0.498,0.332c-6.422,3.6-13.871,5.759-20.472,9.24
	c-11.204,5.907-21.534,8.754-34.198,9.158c-13.845,0.441-29.339-2.892-42.495,2.675c-10.419,4.408-25.718,13.804-37.409,12.741
	c-4.782-0.435-14.031,5.343-18.454,7.471c-5.539,2.665-12.354,8.656-14.366,14.677c-2.446,7.322,2.208,9.587,7.202,13.96
	c4.391,3.845,3.905,4.759,4.046,10.686c0.397,16.711,3.8,33.175,4.729,49.85c0.829,14.899,2.764,29.266,11.958,41.619
	c6.125,8.23,18.065,19.889,28.685,21.309c7.928,1.06,15.488,3.697,23.288,5.348c7.586,1.606,15.397,0.746,22.885,2.354
	c4.604,0.988,14.796,4.505,17.499,8.169C179.529,324.186,179.584,324.267,179.636,324.349z"/>
<g>
	<path class="st7" d="M325.776,281.856l18.37-34.81l-0.104,0.241l4.116-10.958L348.04,237l0.19-18v-0.037
		c0.003-0.269,0.072-0.53,0.187-0.754l14.063-27.399l1.759-3.425l0.879-1.712c0.304-0.57,0.552-1.127,0.936-1.773
		c0.736-1.21,1.56-2.282,2.489-3.292c0.942-0.988,1.938-1.935,3.067-2.721c0.544-0.42,1.132-0.777,1.73-1.118
		c0.578-0.375,1.223-0.63,1.845-0.923c1.265-0.544,2.593-0.946,3.946-1.179c0.67-0.171,1.358-0.176,2.039-0.24
		c0.341-0.021,0.683-0.064,1.022-0.066l1.021,0.044c1.369-0.007,2.688,0.295,4.021,0.503l-0.81,0.134
		c0.117-0.072,0.303-0.197,0.455-0.312c0.161-0.117,0.317-0.244,0.474-0.373c0.312-0.258,0.604-0.541,0.891-0.831
		c0.278-0.297,0.543-0.604,0.79-0.927c0.236-0.327,0.478-0.654,0.672-1.007c0.219-0.341,0.373-0.712,0.552-1.072
		c0.133-0.377,0.303-0.745,0.389-1.137c0.122-0.383,0.186-0.78,0.248-1.177c0.073-0.396,0.062-0.804,0.101-1.206l0.361,0.772
		c-0.567-0.516-0.94-0.983-1.351-1.503c-0.383-0.518-0.758-1.039-1.072-1.591c-0.344-0.539-0.621-1.107-0.905-1.672
		c-0.292-0.562-0.5-1.158-0.752-1.734c-0.226-0.586-0.402-1.188-0.604-1.782c-0.188-0.598-0.311-1.211-0.468-1.815
		c-0.172-0.603-0.23-1.224-0.345-1.835c-0.113-0.613-0.2-1.228-0.238-1.847c-0.049-0.618-0.118-1.234-0.15-1.852l-0.021-1.853
		c-0.023-0.618,0.006-1.233,0.053-1.847l0.115-1.843c0.048-0.613,0.152-1.219,0.227-1.828l0.246-1.824l0.729-3.599
		c0.014-0.066,0.037-0.128,0.069-0.185l0.008-0.013c1.713-2.931,3.324-5.957,4.84-9.013c1.513-3.061,2.931-6.169,4.192-9.338
		c1.253-3.17,2.371-6.402,3.124-9.717c0.195-0.828,0.341-1.663,0.485-2.499c0.115-0.839,0.218-1.679,0.262-2.523
		c0.041-0.843,0.037-1.686-0.042-2.522c-0.021-0.42-0.125-0.826-0.183-1.241c-0.079-0.41-0.218-0.803-0.322-1.206l-0.008-0.031
		c-0.012-0.043-0.01-0.088,0.001-0.128L406,77l-6.246,24.069l-0.007-0.159c0.122,0.422,0.276,0.839,0.369,1.268
		c0.07,0.432,0.187,0.86,0.218,1.296c0.102,0.87,0.124,1.742,0.1,2.611c-0.026,0.87-0.113,1.732-0.214,2.594
		c-0.129,0.855-0.26,1.712-0.44,2.557c-0.694,3.388-1.757,6.678-2.953,9.906c-1.206,3.227-2.569,6.389-4.028,9.505
		c-1.465,3.117-3.013,6.179-4.694,9.203l0.077-0.198l-0.636,3.522l-0.201,1.774c-0.059,0.592-0.149,1.181-0.183,1.773l-0.072,1.778
		c-0.033,0.593-0.05,1.185-0.014,1.775l0.058,1.771c0.043,0.588,0.122,1.172,0.181,1.757c0.047,0.588,0.143,1.167,0.262,1.741
		c0.121,0.573,0.186,1.161,0.36,1.719c0.16,0.562,0.286,1.134,0.472,1.686c0.201,0.545,0.375,1.102,0.595,1.638
		c0.245,0.524,0.446,1.071,0.724,1.576c0.271,0.509,0.532,1.022,0.852,1.497c0.293,0.493,0.638,0.946,0.98,1.393
		c0.342,0.424,0.751,0.884,1.086,1.175l0.059,0.052c0.215,0.186,0.317,0.458,0.303,0.72c-0.03,0.488-0.014,0.98-0.089,1.466
		c-0.064,0.488-0.137,0.975-0.272,1.449c-0.102,0.484-0.292,0.94-0.451,1.406c-0.204,0.447-0.391,0.905-0.644,1.325
		c-0.23,0.435-0.51,0.837-0.789,1.237c-0.288,0.395-0.599,0.77-0.925,1.132c-0.333,0.355-0.677,0.699-1.047,1.02
		c-0.185,0.16-0.372,0.318-0.569,0.468c-0.203,0.156-0.383,0.289-0.644,0.456c-0.207,0.133-0.445,0.181-0.672,0.152l-0.138-0.018
		c-1.207-0.154-2.408-0.412-3.616-0.373l-0.903-0.023c-0.301,0.007-0.598,0.055-0.896,0.08c-0.594,0.071-1.198,0.079-1.773,0.246
		c-1.17,0.227-2.307,0.597-3.387,1.09c-0.531,0.268-1.083,0.491-1.576,0.831c-0.512,0.305-1.015,0.622-1.479,1
		c-0.967,0.7-1.821,1.552-2.631,2.434c-0.791,0.893-1.513,1.887-2.089,2.881c-0.267,0.46-0.537,1.081-0.823,1.649l-0.843,1.73
		l-1.686,3.461l-13.48,27.69L351.77,219l0.19,18c0.002,0.219-0.033,0.429-0.102,0.624l-0.017,0.046l-3.884,11.042
		c-0.023,0.067-0.05,0.131-0.081,0.193l-0.024,0.048l-17.629,35.19c-0.619,1.234-2.121,1.734-3.355,1.115s-1.734-2.121-1.115-3.355
		C325.759,281.892,325.771,281.869,325.776,281.856z"/>
</g>
<g>
	<path class="st7" d="M328.247,76.459c0,0,0.618,3.25,1.701,8.938c0.268,1.423,0.598,2.989,0.894,4.713
		c0.287,1.727,0.597,3.594,0.929,5.59c0.229,2.018,0.472,4.166,0.729,6.429c0.181,2.254,0.371,4.624,0.569,7.097
		c0.376,4.948,0.842,10.304,1.218,15.989c0.161,2.848,0.326,5.774,0.495,8.764c0.054,3.002,0.107,6.07,0.163,9.189l0.021,1.173
		l0.053,1.088c0.04,0.78,0.081,1.564,0.121,2.351c0.01,0.805,0.143,1.538,0.26,2.281c0.112,0.744,0.226,1.49,0.34,2.238
		c0.287,1.513,0.655,3.059,0.998,4.599c0.407,1.55,0.815,3.107,1.227,4.67c0.418,1.583,0.869,3.142,1.255,4.77l0.599,2.427
		c0.201,0.81,0.334,1.653,0.504,2.48c0.153,0.833,0.339,1.659,0.466,2.503l0.29,2.563l0.143,1.284l0.035,0.321
		c0.02,0.214,0.012,0.237,0.02,0.365l0.021,0.62l0.045,1.24l-0.012,1.309c-0.117,6.928-1.31,13.575-3.039,20.054
		c-0.9,3.226-1.958,6.397-3.316,9.453c-0.673,1.53-1.417,3.035-2.287,4.49c-0.394,0.739-0.925,1.438-1.386,2.152
		c-0.443,0.637-0.886,1.272-1.325,1.904c-3.327,4.827-5.907,10.065-7.295,15.178c-1.415,5.129-1.381,10.208,0.005,14.523
		c0.417,1.139,0.825,2.253,1.225,3.343c0.405,1.116,0.823,2.18,1.109,3.379c0.156,0.578,0.311,1.149,0.463,1.711
		c0.157,0.562,0.303,1.115,0.38,1.664c0.188,1.093,0.368,2.155,0.544,3.184c0.145,2.086,0.394,4.016,0.28,5.82
		c-0.032,0.899-0.026,1.759-0.102,2.577c-0.105,0.815-0.206,1.592-0.302,2.33c-0.124,1.478-0.547,2.752-0.801,3.866
		c-0.148,0.554-0.245,1.074-0.407,1.532c-0.173,0.454-0.331,0.866-0.473,1.235c-0.565,1.463-0.866,2.243-0.866,2.243
		c-0.05,0.128-0.194,0.192-0.322,0.143c-0.116-0.044-0.18-0.167-0.154-0.284l0.006-0.029c0,0,0.172-0.804,0.494-2.313
		c0.081-0.374,0.171-0.791,0.271-1.25c0.095-0.459,0.117-0.978,0.187-1.526c0.099-1.104,0.323-2.349,0.28-3.774
		c0.008-0.706,0.016-1.45,0.024-2.229c-0.018-0.778-0.133-1.592-0.19-2.437c-0.058-1.694-0.484-3.494-0.806-5.408
		c-0.251-0.941-0.51-1.912-0.775-2.912c-0.113-0.507-0.286-0.992-0.469-1.479c-0.175-0.488-0.352-0.983-0.531-1.485
		c-0.306-0.988-0.822-2.05-1.318-3.131c-0.234-0.519-0.471-1.044-0.711-1.575c-0.263-0.604-0.528-1.216-0.797-1.833
		c-0.972-2.513-1.599-5.292-1.773-8.191c-0.156-2.901,0.181-5.881,0.831-8.836c0.65-2.96,1.681-5.888,2.989-8.736
		c1.298-2.864,2.901-5.596,4.758-8.313c0.453-0.635,0.909-1.272,1.366-1.912c0.39-0.597,0.831-1.138,1.186-1.788
		c0.755-1.243,1.468-2.561,2.118-3.934c1.301-2.747,2.437-5.668,3.4-8.681c1.897-6.016,3.21-12.47,3.531-18.772l0.047-1.171
		l-0.01-1.24l-0.004-0.62c-0.003-0.078,0.002-0.263-0.006-0.253l-0.025-0.296l-0.101-1.183l-0.197-2.367
		c-0.096-0.79-0.252-1.58-0.374-2.37c-0.14-0.79-0.238-1.579-0.411-2.37l-0.515-2.37c-0.324-1.573-0.736-3.168-1.105-4.745
		c-0.371-1.597-0.74-3.188-1.108-4.771c-0.313-1.618-0.646-3.208-0.906-4.837c-0.102-0.833-0.202-1.663-0.303-2.491
		c-0.102-0.828-0.215-1.658-0.201-2.432c-0.019-0.787-0.036-1.571-0.055-2.353l-0.013-0.585l-0.008-0.665l0.012-1.158
		c0.033-3.082,0.065-6.113,0.097-9.08c-0.073-2.974-0.145-5.883-0.215-8.715c-0.169-5.671-0.44-11.041-0.637-15.999
		c-0.109-2.479-0.213-4.854-0.313-7.113c-0.172-2.238-0.335-4.36-0.488-6.355c-0.503-3.982-0.958-7.46-1.415-10.322
		c-0.841-5.728-1.322-9-1.322-9c-0.02-0.137,0.075-0.264,0.212-0.284C328.098,76.237,328.222,76.329,328.247,76.459z"/>
</g>
<g>
	<path class="st7" d="M317.813,281.71l-1.448-2.66c-0.48-0.895-0.964-1.781-1.479-2.58l-1.517-2.475l-1.654-2.436
		c-2.238-3.233-4.696-6.327-7.308-9.356c-1.282-1.523-2.628-3.028-3.949-4.54l-2.006-2.271l-1.004-1.136l-0.125-0.142l-0.196-0.231
		l-0.235-0.297c-0.164-0.217-0.295-0.348-0.493-0.654l-0.542-0.821l-0.428-0.766c-0.285-0.508-0.504-1.017-0.739-1.522
		c-0.44-1.012-0.802-2.006-1.148-2.979c-0.681-1.925-1.286-3.787-2.107-5.287c-0.414-0.737-0.862-1.399-1.377-1.875l-0.046-0.05
		c0.178,0.151,0.028,0.025,0.058,0.051l-0.037-0.03l-0.147-0.119l-0.294-0.238c-0.2-0.166-0.4-0.328-0.535-0.394l-0.449-0.29
		l-0.562-0.302c-1.528-0.813-3.386-1.377-5.295-1.959c-1.917-0.583-3.934-1.153-5.953-2.024c-1.008-0.428-2.017-0.935-2.985-1.561
		c-0.494-0.284-0.947-0.677-1.417-1.015l-1.19-1.012l-1.145-0.997c-0.379-0.334-0.771-0.688-1.108-0.946
		c-0.349-0.28-0.705-0.591-1.03-0.76l-0.493-0.314c-0.167-0.09-0.345-0.132-0.514-0.206l-0.512-0.21l-0.595-0.106
		c-0.391-0.08-0.783-0.169-1.253-0.163l-1.352-0.061l-1.435,0.062l-0.718,0.03l-0.179,0.007l-0.09,0.004
		c-0.114,0.011,0.104-0.014,0.065-0.008l-0.047,0.006l-0.375,0.048l-1.502,0.193c-0.266,0.024-0.481,0.075-0.68,0.133l-0.623,0.157
		c-0.415,0.102-0.829,0.186-1.271,0.364c-1.747,0.54-3.452,1.453-5.283,2.349c-0.896,0.462-1.87,0.9-2.825,1.341l-1.502,0.59
		l-0.376,0.146l-0.188,0.073l-0.26,0.083l-0.726,0.217l-1.451,0.433c-0.496,0.139-1.073,0.235-1.606,0.352
		c-1.093,0.262-2.165,0.364-3.237,0.473c-4.315,0.424-8.673-0.387-12.656-1.817c-3.967-1.511-7.624-3.604-10.997-5.965
		c-3.396-2.356-6.549-4.909-9.697-7.457c-3.149-2.555-6.248-5.117-9.419-7.56c-3.168-2.442-6.413-4.757-9.833-6.735
		c-3.415-1.984-7.005-3.633-10.753-4.776c-3.746-1.149-7.64-1.782-11.569-1.939l-0.065-0.002c-0.047-0.002-0.097-0.009-0.142-0.02
		l-6.252-1.501c-1.051-0.216-2.061-0.576-3.08-0.905l-3.054-0.995c-2.059-0.601-4.004-1.494-5.993-2.275
		c-0.985-0.412-1.992-0.777-2.957-1.229l-2.89-1.366l-2.889-1.366l-2.826-1.475c-1.884-0.983-3.771-1.96-5.613-3.003l-11.084-6.178
		l-5.55-3.04c-0.85-0.404-1.892-0.898-2.825-1.289l-1.425-0.464c-0.474-0.158-0.944-0.325-1.455-0.418
		c-3.99-0.988-8.195-1.113-12.423-1.311c-2.122-0.107-4.227-0.27-6.316-0.271c-2.089-0.03-4.228-0.002-6.372-0.155
		c-2.137-0.125-4.326-0.412-6.41-1.232l-0.779-0.314l-0.194-0.079c-0.049-0.024-0.027-0.002-0.135-0.064l-0.085-0.051l-0.339-0.205
		l-0.679-0.409c-0.227-0.158-0.456-0.35-0.682-0.525c-0.924-0.708-1.632-1.527-2.334-2.374c-1.361-1.712-2.401-3.583-3.52-5.354
		c-1.117-1.764-2.278-3.507-3.835-4.782c-1.54-1.29-3.487-1.952-5.533-2.091c-2.013-0.167-4.156,0.137-6.332-0.081
		c-4.537-0.385-7.971-3.283-11.71-5.039c-0.935-0.449-1.911-0.821-2.889-1.107l-1.534-0.396l-1.53-0.294
		c-2.063-0.354-4.17-0.575-6.269-0.908c-2.096-0.32-4.211-0.799-6.174-1.654c-0.979-0.486-1.93-1.039-2.714-1.795
		c-0.793-0.743-1.457-1.608-2.014-2.524c-1.106-1.838-1.858-3.827-3.052-5.543c-0.612-0.856-1.247-1.646-2.078-2.32
		c-0.799-0.657-1.695-1.192-2.657-1.604c-3.875-1.647-8.374-1.125-12.277-2.948c-3.895-1.727-7.306-4.268-11-6.323
		c3.716,2.008,7.176,4.513,11.056,6.174c3.888,1.764,8.336,1.172,12.343,2.802c0.988,0.407,1.931,0.952,2.772,1.628
		c0.825,0.648,1.549,1.507,2.168,2.362c1.248,1.752,2.034,3.75,3.132,5.521c0.553,0.882,1.197,1.698,1.957,2.392
		c0.752,0.709,1.66,1.215,2.572,1.66c1.929,0.811,3.982,1.25,6.063,1.541c4.142,0.623,8.492,0.722,12.463,2.613
		c1.954,0.897,3.756,2.029,5.617,2.973c0.463,0.242,0.93,0.438,1.394,0.661c0.468,0.213,0.982,0.378,1.471,0.57
		c0.457,0.163,0.977,0.256,1.46,0.389c0.493,0.121,1.01,0.139,1.513,0.214c2.043,0.186,4.134-0.145,6.342,0.001
		c0.56,0.043,1.129,0.078,1.63,0.205l0.777,0.155c0.329,0.077,0.546,0.181,0.825,0.271c0.261,0.1,0.534,0.175,0.785,0.297
		l0.741,0.396c0.514,0.237,0.926,0.619,1.387,0.933c1.746,1.399,2.98,3.229,4.141,5.006c1.157,1.787,2.209,3.612,3.505,5.197
		c0.651,0.771,1.356,1.549,2.122,2.115c0.193,0.146,0.368,0.299,0.574,0.441l0.684,0.401l0.342,0.2l0.085,0.05
		c-0.053-0.026,0.036,0.012,0.046,0.015l0.174,0.066l0.696,0.268c1.86,0.709,3.929,0.97,6.002,1.062
		c2.077,0.122,4.171,0.069,6.309,0.073c2.14-0.025,4.257,0.113,6.358,0.191c4.206,0.147,8.52,0.207,12.774,1.2
		c0.532,0.091,1.063,0.267,1.595,0.437l1.593,0.507c1.018,0.415,1.896,0.816,2.958,1.309l5.614,2.982l11.152,6.034
		c1.851,1.017,3.731,1.959,5.608,2.909l2.815,1.424l2.861,1.309l2.861,1.309c0.955,0.433,1.944,0.775,2.914,1.167
		c1.956,0.739,3.873,1.593,5.887,2.15l2.989,0.932c0.997,0.309,1.985,0.648,3.011,0.845l6.1,1.385l-0.207-0.022
		c4.145,0.112,8.291,0.729,12.28,1.9c3.993,1.162,7.809,2.862,11.4,4.889c7.205,4.065,13.482,9.335,19.804,14.302
		c3.16,2.494,6.324,4.985,9.595,7.192c3.266,2.229,6.707,4.12,10.308,5.442c3.612,1.237,7.405,1.89,11.146,1.471
		c0.936-0.108,1.874-0.208,2.746-0.433c0.451-0.106,0.875-0.165,1.35-0.303l1.445-0.452l0.723-0.226l0.09-0.028l0.045-0.014
		c0.032-0.01-0.119,0.039-0.036,0.01l0.164-0.067l0.328-0.134l1.311-0.532c0.872-0.42,1.736-0.818,2.63-1.292
		c1.781-0.896,3.64-1.933,5.749-2.626c0.497-0.204,1.067-0.345,1.633-0.486l0.846-0.212c0.289-0.076,0.565-0.138,0.803-0.161
		l1.5-0.212l0.375-0.053l0.206-0.023l0.1-0.005l0.198-0.011l0.795-0.044l1.59-0.085c0.551,0.004,1.117,0.033,1.675,0.051
		c0.545-0.008,1.145,0.094,1.746,0.209l0.894,0.167l0.902,0.331c0.296,0.119,0.609,0.22,0.886,0.363l0.798,0.477
		c0.566,0.316,0.976,0.668,1.419,1.013c0.465,0.354,0.826,0.676,1.208,1.004l1.152,0.978l1.128,0.937
		c0.357,0.238,0.665,0.521,1.054,0.731c0.733,0.461,1.539,0.858,2.393,1.208c1.7,0.712,3.583,1.23,5.536,1.794
		c1.952,0.576,4.002,1.139,6.067,2.188c0.259,0.136,0.51,0.258,0.775,0.409l0.827,0.527c0.303,0.188,0.495,0.344,0.686,0.498
		l0.297,0.234l0.148,0.118l0.169,0.139l0.086,0.085c0.98,0.892,1.676,1.924,2.26,2.935c1.136,2.042,1.778,4.047,2.475,5.912
		c0.342,0.926,0.686,1.825,1.062,2.66c0.196,0.406,0.381,0.826,0.598,1.194l0.316,0.553l0.294,0.441
		c0.183,0.272,0.669,0.86,0.84,1.039l1.016,1.121l2.033,2.244c1.355,1.512,2.722,3,4.06,4.55c2.7,3.053,5.317,6.258,7.72,9.635
		l1.779,2.554l1.683,2.669c0.585,0.895,1.078,1.776,1.564,2.655l1.482,2.642c0.677,1.203,0.25,2.728-0.954,3.404
		c-1.203,0.677-2.728,0.25-3.404-0.954C317.826,281.735,317.815,281.716,317.813,281.71z"/>
</g>
<g>
	<path class="st7" d="M324.944,286.541c0,0-0.326,0.228-0.959,0.668c-0.166,0.112-0.316,0.231-0.55,0.374
		c-0.252,0.144-0.529,0.301-0.83,0.472c-0.3,0.166-0.631,0.356-0.976,0.534c-0.332,0.149-0.687,0.309-1.063,0.478
		c-1.504,0.669-3.385,1.302-5.508,1.889c-2.119,0.609-4.51,1.188-6.909,2.085c-1.164,0.482-2.385,0.994-3.436,1.74
		c-0.572,0.329-1.022,0.788-1.54,1.204c-0.237,0.228-0.438,0.49-0.668,0.733l-0.341,0.373l-0.283,0.428
		c-1.692,2.428-2.612,5.453-3.502,9.309c-0.478,1.906-1.059,4.111-2.339,6.225c-1.259,2.124-3.21,3.874-5.298,5.095
		c-0.524,0.308-1.049,0.636-1.597,0.868l-0.818,0.382l-0.411,0.191l-0.206,0.095l-0.103,0.048l-0.198,0.075
		c-0.525,0.188-1.053,0.379-1.584,0.569c-0.561,0.185-1.244,0.343-1.867,0.509c-2.487,0.572-4.97,0.742-7.454,0.75
		c-4.944,0.018-9.833-0.616-14.493,0.258c-1.161,0.212-2.3,0.521-3.401,0.945l-0.823,0.33l-0.342,0.135l-0.439,0.226
		c-0.276,0.149-0.625,0.305-0.843,0.45l-0.696,0.435c-1.967,1.3-3.759,3.128-5.543,5.136c-1.799,2.007-3.625,4.214-5.93,6.18
		c-0.567,0.497-1.186,0.954-1.811,1.408c-0.73,0.469-1.166,0.78-1.931,1.189c-1.396,0.792-2.73,1.367-4.114,1.93
		c-2.74,1.114-5.487,1.98-7.972,3.191c-2.509,1.189-4.674,2.723-6.289,4.915c-1.681,2.144-2.712,4.681-3.137,7.448
		c-0.427,2.766-0.261,5.713,0.035,8.72c0.308,2.998,0.715,6.141,0.883,9.281c0.173,3.172,0.215,6.393-0.363,9.694
		c-0.302,1.642-0.777,3.318-1.643,4.885c-0.847,1.565-2.105,2.988-3.617,3.96c-1.498,0.999-3.149,1.616-4.78,2.022
		c-1.636,0.411-3.272,0.64-4.896,0.795c-1.625,0.155-3.238,0.217-4.846,0.257l-2.408,0.032h-1.201l-0.6-0.002
		c-0.021,0-0.164,0-0.086,0l-0.149,0.006l-0.298,0.012l-2.383,0.097c-0.409,0-0.775,0.058-1.139,0.116l-1.103,0.162l-1.105,0.157
		l-1.094,0.289c-0.723,0.209-1.479,0.331-2.162,0.649c-2.834,1.003-5.426,2.631-7.585,4.768c-2.176,2.123-3.977,4.653-5.583,7.312
		c-3.225,5.336-5.662,11.179-8.681,16.74c-1.587,2.823-3.621,5.49-6.215,7.445c-0.648,0.468-1.284,0.964-1.942,1.404l-1.992,1.271
		l-2.013,1.181c-0.597,0.335-1.279,0.812-1.912,1.21c-2.393,1.656-4.625,3.808-7.021,5.719c-1.214,0.953-2.463,1.883-3.854,2.634
		l-1.06,0.537l-0.265,0.134c-0.032,0.02-0.19,0.081-0.187,0.076l-0.133,0.045l-0.533,0.179c-0.667,0.271-1.527,0.4-2.32,0.562
		c-3.131,0.385-6.142-0.034-9.036-0.346c-2.892-0.325-5.762-0.564-8.42,0.051c-1.292,0.363-2.572,0.837-3.59,1.699l-0.4,0.295
		c-0.069,0.021-0.234,0.223-0.346,0.325c-0.227,0.253-0.546,0.501-0.697,0.756c-0.179,0.261-0.383,0.487-0.549,0.769l-0.482,0.861
		c-1.146,2.41-1.458,5.183-2.004,7.881c-0.274,1.355-0.607,2.713-1.125,4.018c-0.501,1.307-1.262,2.542-2.255,3.539l-0.696,0.711
		l-0.841,0.646c-0.546,0.465-1.164,0.743-1.751,1.091c-0.599,0.317-1.235,0.545-1.851,0.804c-0.639,0.185-1.265,0.418-1.907,0.558
		c-5.141,1.195-10.183,0.854-14.899,1.211c-1.175,0.077-2.355,0.232-3.45,0.428c-1.126,0.296-2.281,0.518-3.305,0.939
		c-2.106,0.737-4.077,1.793-5.814,3.058c-3.518,2.502-6.291,5.598-9.148,8.231c-2.853,2.637-5.853,4.838-9.014,6.081
		c-0.77,0.326-1.594,0.551-2.387,0.719c-0.808,0.127-1.614,0.18-2.396,0.07c-1.572-0.226-2.892-1.081-3.882-2.063
		c-1.007-0.983-1.796-2.05-2.537-3.043c-0.739-0.997-1.426-1.934-2.11-2.769c-1.357-1.68-2.726-2.93-3.966-3.756
		c-1.234-0.837-2.299-1.277-3.015-1.556C31.878,479.123,31.5,479,31.5,479s0.38,0.119,1.116,0.349
		c0.72,0.271,1.792,0.697,3.042,1.523c1.255,0.813,2.647,2.054,4.03,3.724c0.698,0.829,1.398,1.76,2.148,2.746
		c0.752,0.983,1.552,2.035,2.553,2.988c0.987,0.954,2.267,1.755,3.771,1.953c0.749,0.095,1.525,0.035,2.304-0.097
		c0.778-0.178,1.545-0.393,2.318-0.73c3.096-1.262,6.023-3.463,8.822-6.114c2.807-2.649,5.546-5.791,9.106-8.393
		c1.764-1.315,3.755-2.42,5.949-3.219c1.093-0.457,2.215-0.683,3.344-0.995c1.203-0.233,2.365-0.395,3.572-0.492
		c4.778-0.413,9.808-0.151,14.727-1.366c2.459-0.605,4.762-1.717,6.52-3.611c1.785-1.792,2.505-4.413,3.004-7.041
		c0.511-2.646,0.766-5.489,2.005-8.205l0.535-0.984c0.187-0.326,0.446-0.639,0.671-0.956c0.229-0.346,0.486-0.533,0.729-0.809
		c0.146-0.138,0.193-0.231,0.422-0.406l0.451-0.344c1.157-0.993,2.617-1.567,4.064-1.985c2.965-0.721,5.987-0.476,8.9-0.191
		c2.92,0.286,5.846,0.63,8.656,0.246c2.78-0.402,5.218-2.03,7.518-3.916c2.321-1.89,4.462-4.037,7.103-5.917
		c0.661-0.426,1.232-0.846,1.97-1.279l1.964-1.184l1.904-1.248c0.623-0.428,1.205-0.896,1.811-1.342
		c2.366-1.827,4.158-4.256,5.613-6.895c2.896-5.483,5.263-11.378,8.532-16.95c1.635-2.779,3.506-5.496,5.861-7.852
		c2.333-2.369,5.237-4.255,8.386-5.412c0.766-0.359,1.592-0.514,2.394-0.753l1.211-0.331l1.255-0.199
		c0.825-0.107,1.703-0.31,2.486-0.331l2.382-0.126l0.297-0.016l0.361-0.012l0.592-0.006l1.183-0.014l2.356-0.061
		c1.565-0.059,3.125-0.139,4.654-0.304c3.032-0.339,6.096-0.909,8.354-2.461c2.286-1.495,3.467-4.111,3.931-6.998
		c0.474-2.886,0.417-5.956,0.209-8.971c-0.202-3.062-0.628-6.046-0.986-9.152c-0.338-3.09-0.585-6.29-0.13-9.536
		c0.435-3.224,1.704-6.46,3.688-9.036c1.896-2.663,4.696-4.686,7.456-6.013c2.778-1.387,5.581-2.299,8.144-3.385
		c1.27-0.53,2.553-1.117,3.62-1.742c0.494-0.25,1.218-0.759,1.673-1.055c0.512-0.385,1.023-0.768,1.506-1.203
		c1.957-1.702,3.67-3.798,5.488-5.887c1.822-2.092,3.788-4.204,6.246-5.879l0.988-0.623c0.337-0.215,0.597-0.326,0.898-0.493
		l0.437-0.231c0.018-0.012,0.214-0.107,0.191-0.092l0.125-0.053l0.249-0.104l0.997-0.415c1.331-0.531,2.706-0.921,4.071-1.188
		c5.508-1.07,10.646-0.411,15.223-0.515c2.286-0.03,4.491-0.232,6.454-0.709c0.477-0.141,0.908-0.221,1.417-0.393
		c0.529-0.197,1.055-0.394,1.577-0.589c0.428-0.206,0.854-0.411,1.276-0.615c0.469-0.2,0.866-0.467,1.276-0.714
		c1.642-0.997,2.906-2.197,3.741-3.634c0.852-1.432,1.328-3.152,1.76-5.002c0.428-1.846,0.858-3.799,1.515-5.658
		c0.14-0.458,0.341-0.942,0.539-1.418c0.195-0.469,0.394-0.975,0.589-1.332c0.196-0.39,0.39-0.777,0.582-1.16
		c0-0.004,0.111-0.208,0.089-0.16l0.051-0.08l0.102-0.159l0.203-0.316l0.407-0.626l0.411-0.614l0.48-0.557
		c0.324-0.363,0.629-0.742,0.968-1.074c0.713-0.62,1.392-1.272,2.146-1.735c1.461-1.044,2.964-1.693,4.36-2.288
		c2.81-1.085,5.262-1.695,7.289-2.311c2.039-0.591,3.646-1.165,4.86-1.724c0.303-0.14,0.588-0.271,0.854-0.394
		c0.227-0.128,0.438-0.248,0.634-0.359c0.195-0.107,0.376-0.206,0.54-0.296c0.175-0.105,0.364-0.255,0.517-0.359
		c0.627-0.449,0.951-0.68,0.951-0.68l0.005-0.004c1.123-0.803,2.685-0.544,3.488,0.579c0.803,1.123,0.544,2.685-0.579,3.488
		C324.965,286.526,324.949,286.537,324.944,286.541z"/>
</g>
<g>
	<path class="st7" d="M328.664,287.751c0,0-0.691,1.186-1.987,3.41c-1.26,2.252-3.107,5.556-5.459,9.76
		c-1.226,2.122-2.647,4.472-4.398,6.942c-1.752,2.469-3.923,5.018-6.567,7.388c-2.643,2.373-5.767,4.524-9.232,6.361
		c-0.85,0.431-1.71,0.868-2.582,1.31c-0.431,0.218-0.865,0.436-1.301,0.655c-0.444,0.22-0.891,0.442-1.209,0.663
		c-0.346,0.224-0.73,0.43-1.057,0.662c-0.281,0.253-0.604,0.482-0.875,0.736c-0.461,0.526-0.866,1.102-1.275,2.005
		c-0.839,1.77-1.751,3.878-2.994,5.802c-0.283,0.457-0.567,0.916-0.853,1.377c-0.31,0.467-0.672,0.945-1.009,1.419
		c-0.343,0.468-0.69,0.969-1.037,1.414c-0.347,0.439-0.694,0.882-1.044,1.326c-0.686,0.87-1.378,1.747-2.075,2.631
		c-0.672,0.88-1.309,1.762-1.947,2.661c-1.175,1.825-2.271,3.719-3.009,5.798c-0.184,0.521-0.369,1.042-0.554,1.565l-0.141,0.394
		c-0.003,0.002-0.043,0.135-0.016,0.029l-0.026,0.108l-0.053,0.218l-0.214,0.873c-0.273,1.159-0.616,2.358-0.767,3.474
		c-0.421,2.24-0.708,4.651-0.915,7.089c-0.429,4.879-0.564,9.994-1.235,15.234l-0.12,0.982l-0.03,0.246l-0.015,0.123
		c0.009-0.04-0.028,0.193-0.034,0.213l-0.096,0.477l-0.385,1.91l-0.193,0.959c-0.091,0.331-0.207,0.675-0.31,1.012l-0.647,2.031
		c-0.217,0.677-0.541,1.28-0.809,1.924c-0.293,0.628-0.532,1.29-0.892,1.877c-0.667,1.209-1.333,2.426-2.105,3.546
		c-1.485,2.305-3.106,4.437-4.647,6.617c-1.515,2.153-3.043,4.404-4.485,6.665c-1.467,2.245-2.831,4.561-4.129,6.907
		c-0.591,1.198-1.267,2.365-1.789,3.596l-0.831,1.829l-0.731,1.869c-1.948,4.919-2.804,10.526-5.363,15.717
		c-0.652,1.288-1.4,2.541-2.273,3.715c-0.904,1.146-1.87,2.262-2.999,3.191c-0.532,0.503-1.146,0.896-1.717,1.348
		c-0.61,0.392-1.206,0.796-1.838,1.159c-1.173,0.674-2.431,1.361-3.697,1.971c-1.254,0.622-2.544,1.166-3.772,1.718
		c-1.232,0.553-2.357,1.111-3.264,1.898c-1.819,1.584-3.038,4.039-4.199,6.422l-0.469,0.969l-0.493,0.888l-0.492,0.887
		c-0.189,0.297-0.425,0.595-0.637,0.891c-0.433,0.599-0.871,1.189-1.353,1.68c-0.47,0.517-0.933,1.045-1.433,1.507
		c-1.952,1.931-3.997,3.624-5.645,5.576c-0.373,0.489-0.817,1.022-1.134,1.472l-1.028,1.69l-0.814,1.676l-0.724,1.785
		c-0.913,2.412-1.661,4.94-2.78,7.356c-0.258,0.608-0.611,1.186-0.912,1.777l-0.26,0.479l-0.271,0.398l-0.541,0.795
		c-0.314,0.532-0.859,1.049-1.288,1.566c-0.459,0.51-0.976,0.918-1.464,1.37c-2.071,1.641-4.205,2.857-5.808,4.635
		c-0.375,0.385-0.782,0.933-1.169,1.39c-0.374,0.48-0.667,0.97-1.007,1.451c-0.31,0.503-0.591,1.033-0.888,1.546l-0.768,1.613
		c-0.96,2.184-1.677,4.47-2.541,6.702c-0.856,2.229-1.9,4.418-3.359,6.294c-1.446,1.889-3.272,3.39-5.222,4.573
		c-0.488,0.275-0.939,0.581-1.452,0.827c-0.512,0.246-1.021,0.49-1.528,0.734c-1.034,0.416-2.053,0.84-3.101,1.138
		c-2.079,0.651-4.169,1.089-6.22,1.411c-4.1,0.667-8.051,0.975-11.73,1.692c-1.845,0.331-3.609,0.795-5.289,1.348
		c-1.684,0.539-3.204,1.351-4.742,2.042c-5.975,2.999-10.606,6.667-14.418,9.59c-3.793,2.977-6.773,5.314-8.806,6.909
		C121.605,547.178,120.5,548,120.5,548s1.093-0.838,3.144-2.409c2.009-1.623,4.956-4.003,8.707-7.032
		c3.779-2.98,8.348-6.716,14.355-9.839c1.513-0.706,3.05-1.554,4.764-2.131c1.699-0.586,3.486-1.082,5.345-1.443
		c3.71-0.777,7.67-1.143,11.718-1.861c2.026-0.348,4.071-0.807,6.085-1.47c1.017-0.305,2-0.731,2.99-1.145
		c0.477-0.237,0.955-0.475,1.436-0.714c0.481-0.236,0.949-0.561,1.427-0.839c1.833-1.15,3.543-2.597,4.873-4.389
		c1.346-1.783,2.311-3.869,3.118-6.063c0.815-2.194,1.503-4.508,2.467-6.791c0.259-0.563,0.519-1.13,0.779-1.697
		c0.306-0.55,0.593-1.107,0.92-1.655c0.358-0.53,0.702-1.101,1.08-1.6c0.405-0.49,0.726-0.952,1.204-1.47
		c1.726-1.961,4.003-3.308,5.875-4.846c0.433-0.416,0.917-0.808,1.301-1.252l0.573-0.668l0.288-0.335l0.265-0.401l0.529-0.802
		l0.265-0.402c0.02-0.058,0.127-0.253,0.187-0.373c0.272-0.56,0.592-1.089,0.828-1.674c1.025-2.291,1.729-4.784,2.633-7.291
		l0.732-1.878l0.893-1.893l1.009-1.714c0.431-0.642,0.84-1.13,1.265-1.703c1.76-2.139,3.835-3.899,5.673-5.776
		c0.482-0.457,0.897-0.951,1.328-1.436c0.458-0.479,0.809-0.983,1.165-1.481c0.179-0.255,0.37-0.484,0.541-0.757l0.479-0.895
		l0.48-0.895l0.402-0.868c0.565-1.252,1.186-2.497,1.901-3.723c0.73-1.214,1.574-2.441,2.727-3.456
		c1.149-1.023,2.504-1.7,3.754-2.283c1.262-0.589,2.492-1.127,3.688-1.743c1.199-0.598,2.345-1.244,3.545-1.956
		c0.555-0.328,1.092-0.707,1.635-1.063c0.5-0.413,1.049-0.768,1.51-1.222c0.991-0.835,1.819-1.832,2.607-2.854
		c0.756-1.049,1.41-2.177,1.986-3.354c1.122-2.378,1.919-4.949,2.643-7.581l1.097-3.982c0.43-1.341,0.782-2.709,1.31-4.013
		l0.74-1.974l0.841-1.926c0.532-1.299,1.211-2.515,1.812-3.773c1.31-2.451,2.679-4.85,4.146-7.167
		c1.443-2.332,2.919-4.573,4.464-6.839c1.53-2.229,3.118-4.386,4.48-6.571c0.724-1.08,1.31-2.201,1.906-3.313
		c0.328-0.545,0.522-1.137,0.779-1.704c0.227-0.574,0.525-1.141,0.696-1.716l0.524-1.718c0.086-0.288,0.183-0.564,0.262-0.86
		l0.179-0.961l0.357-1.916l0.089-0.478l0.04-0.382l0.102-0.944c0.573-5.021,0.639-10.081,1.006-15.112
		c0.181-2.518,0.431-5.002,0.874-7.544c0.172-1.296,0.483-2.428,0.743-3.606l0.201-0.875l0.05-0.219l0.025-0.109
		c0.045-0.178,0.034-0.114,0.054-0.183l0.151-0.453c0.203-0.604,0.405-1.204,0.606-1.803c0.819-2.396,2.042-4.597,3.332-6.647
		c0.676-0.986,1.364-1.966,2.054-2.895c0.692-0.904,1.379-1.801,2.06-2.69c0.333-0.436,0.666-0.87,0.996-1.302
		c0.326-0.431,0.596-0.842,0.896-1.259c0.292-0.422,0.589-0.813,0.875-1.253c0.279-0.465,0.557-0.929,0.833-1.39l0.414-0.689
		l0.206-0.344c0.028-0.046-0.055,0.093,0-0.006l0.043-0.085l0.085-0.17c0.227-0.451,0.453-0.901,0.677-1.348
		c0.448-0.922,0.817-1.807,1.291-2.833c0.193-0.475,0.524-1.043,0.827-1.578c0.284-0.54,0.783-1.054,1.181-1.563
		c0.45-0.45,0.935-0.829,1.407-1.232c0.48-0.354,0.969-0.634,1.453-0.946c0.503-0.332,0.936-0.552,1.365-0.771
		c0.434-0.226,0.864-0.45,1.292-0.674c0.845-0.443,1.679-0.882,2.503-1.314c3.164-1.736,5.934-3.709,8.257-5.855
		c4.675-4.28,7.524-9.217,9.856-13.331c2.296-4.245,4.1-7.579,5.329-9.853c1.273-2.257,1.953-3.461,1.953-3.461
		c0.678-1.202,2.203-1.627,3.405-0.949c1.203,0.678,1.628,2.203,0.949,3.406c-0.003,0.006-0.007,0.013-0.011,0.019L328.664,287.751z
		"/>
</g>
<g>
	<path class="st7" d="M326.133,287.607l1.277,1.123l0.641,0.57l0.667,0.702c0.439,0.468,0.896,0.944,1.311,1.413l1.129,1.381
		c1.479,1.836,2.79,3.695,4.159,5.354c0.669,0.867,1.387,1.617,2.1,2.374c0.343,0.408,0.749,0.688,1.121,1.033l0.568,0.5
		l0.142,0.125l0.07,0.063l0.036,0.031c0.084,0.063-0.076-0.051-0.043-0.027l0.349,0.242l1.396,0.973l1.337,0.806
		c0.851,0.541,1.874,1.05,2.824,1.573c3.883,2.02,8.044,3.854,12.092,5.051l0.378,0.113l0.189,0.057
		c-0.027-0.006,0.129,0.031-0.051-0.009l0.053,0.011l0.104,0.021l0.819,0.161l0.619,0.068l0.739,0.044
		c1.017,0.04,2.116-0.001,3.301-0.011c1.183-0.005,2.464,0.013,3.833,0.285c1.363,0.268,2.813,0.884,3.96,1.826
		c0.31,0.217,0.556,0.48,0.812,0.738c0.258,0.257,0.515,0.517,0.711,0.801l0.315,0.419l0.156,0.21l0.077,0.105l0.039,0.053
		l0.104,0.165l0.416,0.741c0.276,0.565,0.652,1.396,0.803,1.955c0.214,0.621,0.357,1.227,0.5,1.833
		c0.529,2.416,0.717,4.738,0.914,7.02c0.188,2.271,0.337,4.51,0.679,6.592c0.1,0.504,0.187,1.022,0.321,1.481l0.091,0.356
		l0.108,0.304l0.286,0.801l0.571,1.602c0.196,0.523,0.363,1.103,0.61,1.532c0.477,0.917,0.872,1.866,1.396,2.771
		c0.595,0.87,1.104,1.801,1.76,2.632c1.307,1.669,2.781,3.227,4.427,4.704c1.625,1.487,3.375,2.923,5.1,4.417l1.3,1.122l0.649,0.561
		l0.162,0.141l0.211,0.198l0.306,0.295c0.411,0.407,0.813,0.754,1.23,1.211l1.255,1.444c1.528,1.949,2.723,4.264,3.282,6.733
		c0.563,2.47,0.524,4.979,0.216,7.346c-0.311,2.375-0.869,4.642-1.455,6.856l-0.877,3.232l-0.38,1.657
		c-0.147,0.566-0.164,1.047-0.255,1.574c-0.188,1.014-0.198,2.119-0.284,3.188l0.02,1.615l0.015,0.808l0.082,0.8
		c0.138,2.15,0.667,4.235,1.413,6.181l0.637,1.422l0.02,0.045c0.017,0.033-0.077-0.129-0.024-0.039l0.057,0.09l0.112,0.181
		l0.225,0.361l0.448,0.723l0.225,0.361c0.075,0.11,0.155,0.179,0.231,0.271l0.455,0.523c0.263,0.378,0.688,0.653,1.046,0.974
		c1.495,1.209,3.658,1.863,5.808,2.893l1.587,0.824c0.573,0.309,0.997,0.586,1.503,0.881c1.012,0.666,2.087,1.368,2.942,2.371
		c0.852,0.976,1.495,2.031,2.057,3.016l0.852,1.481l0.211,0.369c0.006,0.022,0.134,0.212,0.194,0.309l0.46,0.716
		c0.312,0.463,0.601,0.985,0.931,1.399l0.98,1.262c0.65,0.844,1.439,1.649,2.169,2.464c1.559,1.572,3.18,3.098,4.907,4.537
		c3.416,2.913,7.057,5.646,10.471,8.734c3.414,3.047,6.634,6.606,8.548,10.996l-0.522-0.512c1.336,0.618,2.702,1.279,3.8,2.374
		c1.107,1.042,2.013,2.369,2.481,3.798c0.996,2.858,0.955,5.729,1.193,8.443c0.122,1.357,0.287,2.696,0.599,3.984
		c0.073,0.323,0.186,0.631,0.276,0.948l0.144,0.473c0.018,0.055,0.124,0.289,0.183,0.425c0.288,0.615,0.524,1.331,0.888,1.805
		l0.497,0.794l0.628,0.729c0.202,0.252,0.421,0.487,0.679,0.685l0.737,0.629c1.063,0.755,2.247,1.371,3.498,1.922
		c1.259,0.553,2.561,1.09,3.832,1.779c1.251,0.727,2.464,1.612,3.397,2.776c1.933,2.314,2.449,5.344,3.022,7.969
		c0.308,1.342,0.618,2.668,1.176,3.842c0.606,1.148,1.448,2.194,2.397,3.188c1.866,2.012,3.938,3.858,5.951,5.774l2.975,2.95
		l0.757,0.756l0.654,0.81c0.208,0.292,0.405,0.611,0.606,0.917c0.186,0.313,0.338,0.637,0.507,0.954
		c1.254,2.613,1.445,5.474,2.244,8.063c0.396,1.295,0.976,2.527,1.835,3.553c0.848,1.049,1.982,1.766,3.254,2.236
		c2.563,0.922,5.369,1.04,8.12,1.428c1.376,0.194,2.778,0.445,4.087,0.969c1.306,0.456,2.572,1.114,3.808,1.729
		c2.466,1.264,4.908,2.622,7.598,3.258c2.698,0.628,5.505,0.408,8.269,0.736c1.379,0.173,2.752,0.541,3.963,1.235
		c1.215,0.685,2.233,1.668,3.079,2.766c-0.861-1.086-1.892-2.051-3.108-2.714c-1.212-0.672-2.576-1.018-3.947-1.17
		c-2.747-0.288-5.559-0.025-8.305-0.622c-2.745-0.607-5.232-1.947-7.708-3.172c-1.255-0.601-2.467-1.214-3.791-1.657
		c-1.279-0.491-2.637-0.714-4.005-0.888c-2.732-0.35-5.555-0.416-8.261-1.341c-1.335-0.464-2.638-1.265-3.551-2.374
		c-0.942-1.091-1.582-2.413-2.015-3.758c-0.862-2.696-1.101-5.503-2.313-7.917c-0.162-0.291-0.31-0.596-0.482-0.876
		c-0.186-0.27-0.354-0.542-0.55-0.812l-0.665-0.8l-0.729-0.702l-2.979-2.87c-2.033-1.881-4.138-3.701-6.077-5.731
		c-0.979-0.999-1.92-2.111-2.626-3.412c-0.655-1.333-0.991-2.726-1.324-4.079c-0.322-1.357-0.611-2.727-1.025-3.974l-0.146-0.478
		l-0.208-0.447l-0.412-0.896c-0.123-0.308-0.348-0.549-0.515-0.827c-0.193-0.259-0.33-0.564-0.567-0.787
		c-0.825-0.999-1.896-1.759-3.047-2.41c-1.179-0.618-2.452-1.126-3.742-1.669c-1.296-0.549-2.596-1.192-3.809-2.032l-0.857-0.707
		c-0.297-0.226-0.555-0.492-0.795-0.778c-0.247-0.279-0.5-0.552-0.739-0.839l-0.622-0.961c-0.466-0.651-0.663-1.273-0.974-1.908
		c-0.079-0.182-0.126-0.26-0.232-0.528l-0.167-0.521c-0.106-0.349-0.235-0.693-0.321-1.045c-0.361-1.407-0.554-2.826-0.7-4.23
		c-0.271-2.788-0.315-5.574-1.208-7.975c-0.846-2.426-2.891-4.075-5.315-5.026c-0.235-0.093-0.412-0.27-0.509-0.482l-0.014-0.029
		c-1.789-3.943-4.822-7.26-8.192-10.176c-3.357-2.952-7.019-5.622-10.547-8.544c-1.777-1.439-3.488-2.997-5.144-4.623
		c-0.795-0.861-1.61-1.668-2.361-2.608l-1.121-1.412c-0.378-0.472-0.644-0.944-0.972-1.417l-0.47-0.709
		c-0.091-0.143-0.129-0.184-0.263-0.408l-0.216-0.366l-0.864-1.455c-0.572-0.977-1.144-1.852-1.793-2.576
		c-0.628-0.729-1.488-1.272-2.368-1.841c-0.477-0.269-1.011-0.6-1.441-0.817l-1.442-0.725l-1.514-0.649l-1.585-0.652
		c-0.55-0.261-1.098-0.477-1.646-0.779l-0.82-0.481l-0.409-0.244l-0.38-0.303c-0.498-0.419-1.033-0.778-1.453-1.318
		c-0.414-0.493-0.958-1.039-1.203-1.5l-0.459-0.716l-0.229-0.357l-0.115-0.179l-0.058-0.09c0.035,0.06-0.08-0.131-0.077-0.131
		l-0.024-0.052l-0.781-1.669c-0.911-2.261-1.524-4.622-1.718-7l-0.101-0.891l-0.031-0.892l-0.046-1.786
		c0.075-1.191,0.068-2.363,0.271-3.588c0.13-1.257,0.388-2.341,0.626-3.447l0.854-3.346c0.544-2.175,1.035-4.332,1.281-6.46
		c0.247-2.126,0.229-4.222-0.246-6.18c-0.477-1.956-1.433-3.755-2.719-5.357l-0.988-1.113c-0.348-0.377-0.81-0.771-1.209-1.156
		l-0.311-0.291l-0.078-0.072l-0.038-0.036c0.012,0.011-0.082-0.076,0.017,0.016l-0.161-0.136l-0.646-0.541l-1.291-1.083
		c-1.724-1.451-3.502-2.866-5.246-4.417c-1.752-1.528-3.436-3.238-4.95-5.125c-0.759-0.938-1.373-1.993-2.061-2.989
		c-0.628-1.045-1.137-2.187-1.701-3.282c-0.308-0.563-0.459-1.081-0.668-1.615l-0.595-1.593l-0.297-0.797l-0.18-0.496l-0.13-0.466
		c-0.188-0.628-0.299-1.228-0.426-1.834c-0.426-2.391-0.601-4.684-0.821-6.927c-0.222-2.23-0.446-4.439-0.922-6.45
		c-0.125-0.496-0.249-0.991-0.415-1.441c-0.166-0.53-0.281-0.73-0.483-1.188l-0.427-0.734c-0.074-0.12,0.069,0.109,0.046,0.075
		l-0.026-0.031l-0.051-0.064l-0.101-0.128l-0.199-0.258c-0.124-0.188-0.276-0.321-0.423-0.462c-0.146-0.143-0.281-0.301-0.448-0.398
		c-0.616-0.486-1.314-0.787-2.175-0.951c-0.862-0.16-1.861-0.179-2.943-0.155c-1.083,0.022-2.25,0.086-3.501,0.058l-0.958-0.045
		l-1.071-0.118l-0.852-0.154l-0.104-0.02l-0.205-0.045l-0.22-0.061l-0.439-0.122c-4.669-1.316-8.867-3.127-13.06-5.218
		c-1.044-0.556-2.063-1.039-3.141-1.695l-1.583-0.937l-1.409-0.953l-0.353-0.238c0.004,0.003-0.184-0.133-0.126-0.094l-0.045-0.037
		l-0.091-0.076l-0.181-0.152l-0.721-0.609c-0.467-0.415-0.994-0.797-1.395-1.252c-0.858-0.879-1.714-1.762-2.446-2.681
		c-1.541-1.82-2.872-3.655-4.265-5.329l-1.04-1.24l-1.016-1.068l-0.5-0.534l-0.639-0.552l-1.292-1.105l-0.01-0.008
		c-1.05-0.897-1.173-2.475-0.276-3.525c0.897-1.049,2.476-1.173,3.525-0.276C326.112,287.589,326.128,287.603,326.133,287.607z"/>
</g>
<g>
	<path class="st7" d="M327.714,284.25c0,0,0.196-0.197,0.576-0.579c0.19-0.191,0.426-0.428,0.707-0.709
		c0.354-0.306,0.861-0.688,1.396-1.088c0.552-0.45,1.143-0.719,1.807-1.095c0.653-0.399,1.409-0.634,2.209-0.974
		c1.604-0.558,3.473-1.038,5.464-1.34c1.994-0.335,4.146-0.58,6.351-0.961c2.198-0.386,4.462-0.935,6.471-2.063
		c0.472-0.318,1.026-0.55,1.451-0.956c0.229-0.183,0.458-0.368,0.689-0.554l0.176-0.139c-0.001,0.01,0.11-0.104,0.159-0.151
		l0.386-0.375c1.058-1.007,2.049-2.032,3.075-3.093c2.096-2.178,4.327-4.583,7.037-6.838c1.356-1.122,2.839-2.2,4.484-3.13
		l0.303-0.182l0.151-0.09l0.076-0.045c0.082-0.042-0.076,0.031,0.203-0.107l0.599-0.266l0.602-0.268
		c0.202-0.089,0.384-0.181,0.668-0.262c0.521-0.158,1.045-0.317,1.57-0.477c0.498-0.11,0.979-0.191,1.472-0.286
		c1.946-0.31,3.791-0.37,5.459-0.631c0.405-0.08,0.849-0.109,1.226-0.233l0.587-0.155l0.296-0.077l0.148-0.038
		c-0.185,0.07-0.004,0-0.024,0.008l0.083-0.032c0.864-0.351,1.784-0.686,2.622-1.057c0.757-0.416,1.519-0.777,2.299-1.227
		c0.779-0.501,1.577-0.963,2.359-1.504c1.563-1.078,3.122-2.248,4.725-3.465c1.607-1.209,3.241-2.469,5.025-3.627l1.335-0.876
		c-0.051,0.027,0.161-0.1,0.171-0.102l0.086-0.045l0.17-0.09l0.342-0.181c0.225-0.12,0.447-0.241,0.744-0.361
		c1.146-0.511,2.122-0.839,3.113-1.185c1.945-0.705,3.956-1.281,4.899-2.41c0.065-0.13,0.139-0.243,0.229-0.363l0.336-0.606
		l0.676-1.384c0.493-0.981,0.922-2.016,1.897-3.16c0.391-0.396,0.684-0.771,1.155-1.188c0.458-0.399,0.923-0.858,1.385-1.179
		c0.919-0.714,1.88-1.35,2.864-1.918c1.966-1.148,4.009-2.083,6.061-2.942c4.121-1.727,8.253-3.076,12.146-5.037
		c2.03-0.96,4.044-1.845,5.92-2.877c1.884-1.035,3.601-2.204,4.964-3.729c1.233-1.432,1.964-3.398,2.555-5.506
		c0.609-2.099,1.268-4.459,2.724-6.455c0.707-0.953,1.362-1.773,2.046-2.665l1.021-1.292l0.508-0.645l0.425-0.65
		c0.273-0.441,0.595-0.847,0.832-1.316l0.685-1.424c0.473-0.92,0.888-1.984,1.345-2.978c0.937-2.032,1.91-4.062,3.461-5.869
		c0.359-0.464,0.848-0.852,1.3-1.255c0.521-0.337,1.022-0.715,1.627-0.916c0.571-0.277,1.197-0.35,1.803-0.472
		c0.602-0.009,1.222-0.081,1.795,0.021c2.342,0.264,4.388,1.137,6.344,2.04c1.964,0.919,3.776,1.944,5.644,2.812
		c1.854,0.869,3.736,1.617,5.651,1.963c0.468,0.103,0.958,0.158,1.475,0.219c0.501,0.05,0.979,0.108,1.46,0.118
		c0.963,0.038,1.884-0.018,2.349-0.499c0.514-0.515,0.931-1.537,1.451-2.394c0.504-0.886,1.137-1.736,1.724-2.498
		c1.161-1.566,2.431-3.09,3.648-4.559c2.449-2.943,4.89-5.741,7.044-8.596c1.059-1.438,2.097-2.855,2.983-4.327
		c0.46-0.736,0.916-1.466,1.367-2.188c0.469-0.712,0.957-1.443,1.501-2.093c1.058-1.325,2.313-2.511,3.796-3.27
		c1.477-0.771,3.091-1.078,4.625-1.187c3.084-0.18,5.954,0.123,8.66,0.184c5.42,0.276,10.139,0.453,14.01,0.062
		c3.857-0.354,6.87-1.245,8.556-2.489c1.715-1.237,1.956-2.483,1.997-2.43c-0.042-0.054-0.258,1.197-1.965,2.475
		c-1.676,1.284-4.695,2.234-8.565,2.658c-3.879,0.462-8.637,0.366-14.043,0.186c-2.711-0.015-5.61-0.263-8.601-0.034
		c-1.486,0.132-2.996,0.454-4.349,1.19c-1.358,0.725-2.517,1.851-3.51,3.143c-0.265,0.311-0.492,0.651-0.723,0.993
		c-0.228,0.346-0.476,0.667-0.685,1.043c-0.438,0.729-0.881,1.466-1.327,2.209c-0.88,1.52-1.907,2.975-2.955,4.451
		c-2.13,2.927-4.532,5.78-6.921,8.755c-1.195,1.495-2.384,2.97-3.531,4.576c-0.595,0.802-1.13,1.548-1.596,2.396l-0.689,1.305
		c-0.247,0.447-0.48,0.943-0.943,1.411c-0.462,0.478-1.118,0.737-1.689,0.841c-0.583,0.113-1.127,0.116-1.659,0.104
		c-0.534-0.003-1.067-0.058-1.581-0.1c-0.496-0.05-1.022-0.1-1.559-0.204c-2.129-0.348-4.135-1.115-6.066-1.978
		c-1.93-0.857-3.802-1.871-5.69-2.712c-1.885-0.839-3.854-1.603-5.797-1.78c-0.49-0.084-0.949,0-1.421,0.002
		c-0.441,0.111-0.905,0.154-1.306,0.371c-0.43,0.139-0.791,0.441-1.176,0.686c-0.342,0.331-0.714,0.615-1.013,1.021
		c-1.264,1.512-2.195,3.472-3.045,5.421c-0.44,1.003-0.802,1.995-1.31,3.042l-0.722,1.561c-0.251,0.517-0.604,0.993-0.903,1.492
		l-0.47,0.74l-0.504,0.665l-1.011,1.326l-1.952,2.635c-1.154,1.633-1.705,3.646-2.285,5.802c-0.578,2.152-1.313,4.515-2.975,6.512
		c-1.574,1.829-3.571,3.225-5.555,4.356c-2,1.145-4.042,2.081-5.998,3.05c-3.998,2.1-8.261,3.58-12.183,5.309
		c-3.923,1.748-7.716,3.651-10.28,6.663c-0.416,0.501-0.881,1.44-1.305,2.377l-0.701,1.497l-0.423,0.794
		c-0.203,0.321-0.43,0.647-0.659,0.956c-0.104,0.13-0.185,0.203-0.277,0.307l-0.136,0.145l-0.067,0.073
		c-0.082,0.077,0.088-0.07-0.2,0.191l-0.82,0.579c-0.55,0.372-1.075,0.595-1.607,0.866c-1.042,0.458-2.068,0.839-3.039,1.193
		c-0.973,0.352-1.953,0.726-2.693,1.063c-0.343,0.129-0.977,0.518-1.229,0.649l-1.225,0.837c-1.634,1.1-3.197,2.347-4.774,3.578
		c-1.572,1.238-3.166,2.481-4.813,3.659c-0.821,0.589-1.701,1.125-2.542,1.684c-0.886,0.535-1.854,1.024-2.774,1.523
		c-0.901,0.416-1.765,0.745-2.639,1.118l-0.27,0.105l-0.192,0.056l-0.384,0.111l-0.769,0.217c-0.516,0.166-1.01,0.212-1.514,0.317
		c-1.996,0.339-3.821,0.431-5.421,0.723l-1.161,0.244c-0.325,0.109-0.649,0.209-0.976,0.302c-0.147,0.026-0.36,0.135-0.559,0.227
		l-0.597,0.278l-0.595,0.276c0.23-0.114,0.027-0.008,0.063-0.024l-0.063,0.04l-0.126,0.08l-0.252,0.159
		c-1.364,0.803-2.631,1.753-3.825,2.778c-2.389,2.056-4.487,4.382-6.563,6.622c-1.068,1.144-2.12,2.264-3.132,3.261l-0.379,0.382
		l-0.226,0.221l-0.235,0.201c-0.315,0.265-0.629,0.528-0.94,0.79c-0.602,0.558-1.317,0.911-1.97,1.346
		c-2.713,1.574-5.47,2.241-7.862,2.713c-2.412,0.458-4.541,0.737-6.378,1.081c-1.854,0.315-3.353,0.75-4.596,1.199
		c-0.58,0.271-1.176,0.45-1.607,0.745c-0.443,0.267-0.92,0.487-1.161,0.725c-0.291,0.236-0.54,0.384-0.79,0.592
		c-0.275,0.287-0.507,0.528-0.694,0.722c-0.373,0.388-0.565,0.589-0.565,0.589c-0.957,0.995-2.54,1.026-3.535,0.069
		c-0.995-0.957-1.026-2.54-0.069-3.535C327.688,284.276,327.707,284.258,327.714,284.25z"/>
</g>
<g>
	<path class="st7" d="M377.109,328.658l0.565,0.902l0.448,0.566c0.374,0.427,0.785,0.836,1.245,1.218
		c0.92,0.762,2.006,1.422,3.178,1.997c2.353,1.151,5.023,1.961,7.743,2.69c2.732,0.723,5.547,1.342,8.394,2.052
		c2.845,0.724,5.734,1.488,8.597,2.731c0.714,0.314,1.425,0.659,2.127,1.048c0.351,0.189,0.695,0.415,1.042,0.623l0.893,0.561
		c1.221,0.767,2.46,1.585,3.624,2.177c1.171,0.7,2.389,1.177,3.602,1.651l1.851,0.499l1.938,0.239
		c2.663,0.155,5.497-0.023,8.379-0.248l1.076-0.078l0.538-0.04l0.605-0.029l2.167-0.086c0.701-0.052,1.502,0.009,2.258,0.022
		c0.759,0.037,1.542,0.014,2.278,0.111c2.992,0.218,5.929,0.78,8.811,1.453c2.873,0.713,5.671,1.598,8.434,2.521l8.194,2.802
		c2.721,0.896,5.455,1.682,8.215,2.326c2.776,0.605,5.526,0.975,8.433,1.284l8.617,0.982l17.232,1.965l0.021,0.002
		c0.492,0.056,0.845,0.5,0.789,0.991l-0.006,0.042l-1.617,9.982l-0.782-0.906c1.393-0.012,2.803-0.083,4.229-0.185
		c1.425-0.096,2.858-0.204,4.307-0.253c1.446-0.046,2.906-0.07,4.378,0.096l1.104,0.122c0.366,0.073,0.733,0.169,1.1,0.254
		l0.549,0.133c0.111,0.033,0.137,0.019,0.319,0.093l0.246,0.105l0.985,0.426c0.329,0.114,0.656,0.351,0.982,0.552
		c0.323,0.21,0.66,0.41,0.966,0.631c0.557,0.479,1.168,0.919,1.674,1.434c1.069,0.99,2.042,2.031,3.085,2.979
		c0.504,0.499,1.072,0.896,1.605,1.353c0.559,0.41,1.163,0.765,1.734,1.145c1.258,0.69,2.515,1.349,3.79,1.982
		c5.112,2.53,10.371,4.795,15.755,6.704c1.343,0.484,2.704,0.919,4.069,1.338l2.057,0.598l2.078,0.518
		c1.395,0.306,2.796,0.588,4.217,0.742c1.418,0.177,2.851,0.183,4.274,0.024c-1.418,0.191-2.857,0.218-4.284,0.073
		c-1.43-0.121-2.842-0.372-4.249-0.647l-2.098-0.472l-2.078-0.552c-1.379-0.389-2.755-0.793-4.113-1.248
		c-5.446-1.792-10.771-3.941-15.972-6.368c-1.302-0.61-2.595-1.249-3.86-1.906c-0.631-0.395-1.272-0.754-1.874-1.176
		c-0.566-0.458-1.184-0.874-1.708-1.371c-1.099-0.953-2.106-1.982-3.158-2.912c-0.511-0.495-1.08-0.877-1.615-1.321
		c-0.277-0.189-0.563-0.347-0.842-0.523c-0.284-0.169-0.536-0.365-0.891-0.481l-0.995-0.402l-0.248-0.101l-0.198-0.043l-0.497-0.105
		l-0.995-0.209l-1.032-0.088c-1.375-0.125-2.787-0.071-4.195,0.007c-1.41,0.08-2.827,0.219-4.255,0.349
		c-1.426,0.134-2.872,0.242-4.341,0.287c-0.425,0.014-0.78-0.321-0.794-0.746c-0.001-0.043,0.001-0.084,0.007-0.125l0.005-0.035
		l1.387-10.018l0.805,1.035l-17.273-1.567l-8.636-0.784c-2.849-0.235-5.844-0.564-8.731-1.129c-2.885-0.604-5.729-1.353-8.52-2.201
		l-8.279-2.619c-2.74-0.847-5.479-1.643-8.232-2.259c-2.759-0.576-5.529-1.04-8.312-1.178c-0.701-0.078-1.368-0.032-2.053-0.054
		c-0.688,0.005-1.334-0.047-2.075,0.023l-2.164,0.136l-0.271,0.017l-0.205,0.016l-0.542,0.053l-1.084,0.104
		c-2.873,0.284-5.821,0.563-8.932,0.451l-2.371-0.243l-2.351-0.572c-1.49-0.526-2.982-1.096-4.316-1.847
		c-2.789-1.36-5.025-3.151-7.426-4.063c-2.47-1.01-5.205-1.685-7.974-2.317c-2.778-0.626-5.625-1.184-8.5-1.872
		c-2.872-0.705-5.791-1.492-8.674-2.814c-1.437-0.665-2.865-1.471-4.199-2.521c-0.665-0.525-1.299-1.119-1.891-1.769
		c-0.304-0.339-0.609-0.747-0.902-1.127l-0.607-0.921c-0.76-1.152-0.441-2.703,0.711-3.464c1.152-0.76,2.703-0.441,3.464,0.711
		c0.008,0.013,0.017,0.025,0.024,0.038L377.109,328.658z"/>
</g>
<use xlink:href="#Ribbon"  width="193.011" height="65.641" id="Ribbon" x="-96.506" y="-33.285" transform="matrix(1.2154 0 0 -1 307.5 50.3555)" style="overflow:visible;"/>
<text transform="matrix(0.6132 -0.005 0.0082 1 269.2837 39.4521)" class="st4 st0 st11">HYDERABAD</text>
<use xlink:href="#Hut"  width="70.23" height="81.356" id="Hut9" x="-35.115" y="-40.678" transform="matrix(0.4713 0 0 -0.5597 170.3745 239.2075)" style="overflow:visible;"/>
<use xlink:href="#Hut"  width="70.23" height="81.356" id="Hut8" x="-35.115" y="-40.678" transform="matrix(0.4713 0 0 -0.5597 177.5 189.0986)" style="overflow:visible;"/>
<use xlink:href="#Hut"  width="70.23" height="81.356" id="Hut7" x="-35.115" y="-40.678" transform="matrix(0.4713 0 0 -0.5597 239.8169 218.0869)" style="overflow:visible;"/>
<use xlink:href="#Hut"  width="70.23" height="81.356" id="Hut6" x="-35.115" y="-40.678" transform="matrix(0.4713 0 0 -0.5597 186 289.376)" style="overflow:visible;"/>
<use xlink:href="#Hut"  width="70.23" height="81.356" id="Hut5" x="-35.115" y="-40.678" transform="matrix(0.4713 0 0 -0.5597 329.0508 239.459)" style="overflow:visible;"/>
<use xlink:href="#Hut"  width="70.23" height="81.356" id="Hut4" x="-35.115" y="-40.678" transform="matrix(0.4713 0 0 -0.5597 319.0508 291.459)" style="overflow:visible;"/>
<use xlink:href="#Hut"  width="70.23" height="81.356" id="Hut3" x="-35.115" y="-40.678" transform="matrix(0.4713 0 0 -0.5597 353.8359 285.1353)" style="overflow:visible;"/>
<use xlink:href="#Hut"  width="70.23" height="81.356" id="Hut2" x="-35.115" y="-40.678" transform="matrix(0.4713 0 0 -0.5597 332.0254 329.502)" style="overflow:visible;"/>
<use xlink:href="#Hut"  width="70.23" height="81.356" id="Hut1" x="-35.115" y="-40.678" transform="matrix(0.4713 0 0 -0.5597 401.0254 350.502)" style="overflow:visible;"/>
<use xlink:href="#Hut"  width="70.23" height="81.356" x="-35.115" y="-40.678" transform="matrix(0.5728 0 0 -0.5452 576.7734 568.9941)" style="overflow:visible;"/>
<rect x="491.965" y="564.437" class="st6" width="114" height="45"/>
<text transform="matrix(1 0 0 1 491.9648 583.9727)" class="st10 st12">Project -</text>
</svg>
