<?xml version="1.0" encoding="utf-8"?>
<!-- Generator: Adobe Illustrator 16.0.0, SVG Export Plug-In . SVG Version: 6.00 Build 0)  -->
<!DOCTYPE svg PUBLIC "-//W3C//DTD SVG 1.1//EN" "http://www.w3.org/Graphics/SVG/1.1/DTD/svg11.dtd">
<svg version="1.1" id="Layer_1" xmlns="http://www.w3.org/2000/svg" xmlns:xlink="http://www.w3.org/1999/xlink" x="0px" y="0px"
	 width="600px" height="600px" viewBox="0 0 600 600" style="enable-background:new 0 0 600 600;" xml:space="preserve">
<style type="text/css">
<![CDATA[
	.st0{fill:none;stroke:#000000;stroke-width:2;stroke-linecap:round;stroke-linejoin:round;stroke-miterlimit:10;}
	.st1{fill:#7D745B;}
	.st2{fill:#E5910C;}
	.st3{font-family:'BellMT';}
	.st4{fill:#EA8B0C;}
	.st5{fill:none;stroke:#6F6F6F;stroke-width:2;stroke-linecap:round;stroke-linejoin:round;stroke-miterlimit:10;}
	.st6{fill:#231F20;}
	.st7{fill:none;stroke:#707070;stroke-width:2;stroke-linecap:round;stroke-linejoin:round;}
	.st8{fill:none;stroke:#707070;stroke-width:2;stroke-linecap:round;stroke-linejoin:round;stroke-miterlimit:10;}
	.st9{fill:#231F20;stroke:#231F20;}
	.st10{font-family:'MyriadPro-Regular';}
	.st11{fill:none;stroke:#000000;stroke-miterlimit:10;}
	.st12{fill:#FFFFFF;}
	.st13{fill:none;}
	.st14{fill:#6F6F6F;}
	.st15{fill:#D3AF7F;}
	.st16{font-family:'Pristina-Regular';}
	.st17{font-size:10;}
	.st18{font-size:12;}
	.st19{font-size:21;}
	.st20{font-size:24;}
	.st21{fill:none;stroke:#231F20;}
	.st22{font-family:'MyriadPro-Bold';}
]]>
</style>
<symbol  id="Airport" viewBox="-8.179 -8.579 366.804 17.157">
	<g>
		<g>
			<path class="st14" d="M-1.299,3.368c0,0-0.145,5.21,1.311,5.21s1.365-5.287,1.365-5.287L7.9-2.229l0.278-1.728L1.287,0.15
				l-0.516-5.9l1.922-2.172l0.055-0.657L0.061-7.938l-2.787-0.642l0.059,0.657l2.105,2.172l-0.701,5.9l-6.915-3.688l0.302,1.308
				L-1.299,3.368z"/>
		</g>
		<g>
			<path class="st11" d="M358.625,1.273"/>
		</g>
	</g>
</symbol>
<symbol  id="Compass_Rose" viewBox="-25.576 -30.321 51.152 60.64">
	<g>
		<path class="st21" d="M5.193,4.041c3.001-1.776,5.011-5.047,5.011-8.785c0-5.636-4.568-10.203-10.204-10.203
			c-5.634,0-10.202,4.567-10.202,10.203c0,3.74,2.011,7.01,5.011,8.786c0.658,0.39,1.361,0.706,2.104,0.941
			C-2.113,5.293-1.074,5.46,0,5.46C1.896,5.46,3.672,4.942,5.193,4.041z"/>
		<g>
			<path class="st21" d="M-5.191,4.042c0.658,0.39,1.361,0.706,2.104,0.941C-2.113,5.293-1.074,5.46,0,5.46
				c1.896,0,3.672-0.518,5.193-1.419l-5.3,15.24L-5.191,4.042z"/>
			<path class="st9" d="M0,5.46c1.896,0,3.672-0.518,5.193-1.419l-5.3,15.24V5.455L0,5.46z"/>
		</g>
		<g>
			<path class="st21" d="M-8.786-9.936c-0.389,0.656-0.705,1.361-0.941,2.102c-0.309,0.976-0.475,2.014-0.475,3.09
				c0,1.895,0.516,3.67,1.417,5.192l-15.24-5.299L-8.786-9.936z"/>
			<path class="st9" d="M-10.202-4.744c0,1.895,0.516,3.67,1.417,5.192l-15.24-5.299h13.827L-10.202-4.744z"/>
		</g>
		<g>
			<path class="st21" d="M5.193-13.531c-0.658-0.389-1.363-0.705-2.102-0.941C2.114-14.781,1.076-14.947,0-14.947
				c-1.895,0-3.67,0.515-5.191,1.417l5.299-15.24L5.193-13.531z"/>
			<path class="st9" d="M0-14.947c-1.895,0-3.67,0.515-5.191,1.417l5.299-15.24v13.827L0-14.947z"/>
		</g>
		<g>
			<path class="st21" d="M8.787,0.448c0.39-0.657,0.707-1.363,0.943-2.103c0.308-0.975,0.475-2.014,0.475-3.09
				c0-1.896-0.518-3.671-1.42-5.193l15.24,5.3L8.787,0.448z"/>
			<path class="st9" d="M10.205-4.744c0-1.896-0.518-3.671-1.42-5.193l15.24,5.3H10.199L10.205-4.744z"/>
		</g>
		<g>
			<path class="st6" d="M3.729,30.096c-0.672-0.082-1.013-0.131-1.013-1.516v-6.227H2.535l-4.688,6.487h-0.021v-4.617
				c0-1.22,0.224-1.479,1.002-1.515v-0.225h-2.504v0.225c0.811,0.059,1.035,0.236,1.035,1.515v5.222
				c-0.438,0.591-0.608,0.65-1.035,0.65v0.224h1.823l4.08-5.692h0.021v3.953c0,1.361-0.299,1.456-1.022,1.516v0.224h2.504V30.096z"
				/>
		</g>
	</g>
</symbol>
<symbol  id="School" viewBox="-3.836 -6.788 7.672 13.576">
	<g>
		<polygon class="st14" points="3.571,-6.788 -3.836,-6.788 -3.836,0.62 3.571,0.62 		"/>
		<polygon class="st14" points="-1.639,2.702 1.131,2.702 1.131,0.604 -1.639,0.604 		"/>
		<polygon class="st14" points="-0.482,6.788 -0.027,6.739 3.836,6.005 -0.051,4.882 -0.051,1.138 -0.482,1.138 		"/>
	</g>
</symbol>
<symbol  id="Zebra" viewBox="-59.547 -40.938 119.096 81.876">
	<g>
		<path class="st1" d="M-57.594-29.543c0.828,0.37,1.461,0.845,2.364,1.576c0.664,2.71-2.164,8.828-1.838,14.184
			c0.27,4.424,0.348,9.97,0.787,14.973c0.349,3.947,4.155,5.754,4.812,9.439c0.839,4.723,2.004,9.006,3.683,12.272
			c-2.103-9.106-3.853-15.76,1.05-23.814c4.903-8.055,0.902-36.009,1.314-37.035c1.4-3.504,21.45-3.415,9.367,5.164
			c0,0,1.927,34.323,24.691,28.719C11.4-9.67,14.116-37.948,14.116-37.948c0.699-3.152,4.967-2.118,7.704-2.803
			c2.802-0.701,8.492,0.438,2.89,5.691c-3.438,3.22,2.102,22.237,2.102,22.237S39.769,2.939,38.02,9.943
			c2.451-2.802,9.103-12.258,9.103-12.258c-0.172-1.751,1.491-3.633,3.547-4.663c2.06-1.027,4.51-1.203,5.91,0.459
			c5.263,6.251,1.929,11.909,1.929,11.909c-0.526,3.414,3.323,15.759-4.729,24.516c1.749,2.102,4.465,5.164,2.101,10.418
			c-2.803-2.101-6.655-4.114-5.953-6.916c-2.451,1.051-2.103,3.502-4.553,3.151c-2.453-0.349-4.555-0.699-4.555-0.699l-2.8-0.176
			l-2.803,0.176l-2.102-0.176l-3.151-0.176l-4.027-1.048l-3.327-1.227l-2.804-0.003l-4.202-0.524L0.546,30.256
			c0,0-39.927,16.462-47.282,1.4c-1.21-1.098-2.785-3.864-4.726-7.262c-1.701-2.978-0.461-5.772-2.717-9.022
			c-1.611-2.32-1.522-7.346-3.415-9.194c-0.194-0.19-2.323-5.743-1.576-11.558c0.445-3.461-0.739-8.948-0.262-12.606
			c0.945-7.256,1.044-8.88,0.798-9.053L-57.594-29.543z"/>
		<polygon class="st6" points="15.78,33.234 13.328,36.036 20.683,35.336 21.208,38.663 25.937,37.262 29.613,40.414 34.167,37.262 
			35.917,40.414 38.545,38.313 43.448,40.938 45.898,37.961 49.401,38.837 49.401,35.86 46.6,37.262 39.595,37.262 34.341,36.211 
			29.264,36.386 22.259,34.461 		"/>
		<polygon class="st6" points="53.583,29.999 54.983,29.999 56.735,28.423 59.099,26.584 57.348,26.145 56.999,23.694 
			55.333,26.146 		"/>
		<path class="st6" d="M58.244-0.387c0,0,1.051-2.104-0.263-2.891c-1.313-0.788-2.89-0.524-1.839,0.787
			C57.193-1.175,56.932-1.175,58.244-0.387z"/>
		<path class="st6" d="M52.729,31.656l1.838,2.889l0.962,3.416l-2.8-2.891C52.729,35.07,52.466,32.707,52.729,31.656z"/>
		<g>
			<path class="st6" d="M11.083-25.928c0.014-0.032,0.026-0.064,0.039-0.096c2.194,1.559,7.569,4.568,13.037,1.476
				c0.083,0.525,0.174,1.053,0.268,1.571C22.903-22.186,17.699-20.243,11.083-25.928z"/>
			<path class="st6" d="M10.35-21.576c0,0-0.354-0.406-0.75-0.876c0.033-0.067,0.067-0.138,0.099-0.204
				c0.354,0.369,0.795,0.834,1.354,1.43c3.369,3.595,9.941,3.155,14.225,2.375c0.057,0.254,0.116,0.506,0.172,0.748
				C12.197-13.057,10.35-21.576,10.35-21.576z"/>
			<path class="st6" d="M6.358-16.751c0.124-0.184,0.254-0.365,0.375-0.549c11.62,6.164,17.497,6,20.357,4.825
				c0.237,0.294,0.613,0.773,1.087,1.394C19.637-7.466,10.52-13.411,6.358-16.751z"/>
			<path class="st6" d="M3.047-12.593c0.224-0.241,0.446-0.481,0.661-0.727c9.695,8.207,21.068,6.995,26.911,5.569
				c0.141,0.2,0.284,0.405,0.428,0.615C15.74,0.094,6.455-7.816,3.047-12.593z"/>
			<path class="st6" d="M9.869,31.774l-0.835-0.137c-1.988-5.911-0.936-17.012,7.356-30.448C12.5,0.289,0.865-3.557-0.892-9.034
				c0.395-0.297,0.777-0.604,1.154-0.918C3.101-5.698,11.9,3.246,32.509-4.949c0.069,0.108,0.14,0.22,0.212,0.331
				c-2.656,1.616-7.638,4.376-11.775,5.105C18.04,2.424,7.423,19.51,9.869,31.774z"/>
			<path class="st6" d="M12.561,32.212l-0.696-0.113c-0.686-1.74-1.555-4.821-0.113-6.746c2.103-2.8,2.103-6.304,5.255-10.508
				c3.152-4.202,0.35-4.552,6.304-8.402c4.691-3.039,8.078-7.152,11.02-8.419c0.206,0.357,0.408,0.716,0.604,1.075
				C28.665,4.059,14.351,13.629,12.561,32.212z"/>
			<path class="st6" d="M32.414,8.894c-0.699,1.749-0.349,7.003-4.552,9.104c-4.202,2.101-5.955,2.802-7.354,5.953
				c-1.261,2.832-3.736,3.215-4.014,8.492l-0.364-0.261c-0.304-2.522-0.622-5.802,1.226-7.881c2.803-3.152,8.404-8.055,9.806-10.856
				c1.401-2.803,3.854-5.953,5.605-7.705c1.205-1.208,2.577-2.403,3.89-3.151c0.147,0.342,0.284,0.681,0.415,1.017
				C34.424,6.903,33.021,7.373,32.414,8.894z"/>
			<path class="st6" d="M38.719,12.395c0,0-0.35,5.253-4.552,8.405c-4.203,3.151-6.305,8.757-5.604,10.158
				c0.31,0.618,0.331,1.769,0.351,4.027l-1.576-0.351l-1.227-5.431l2.452-6.303l7.004-6.653l1.05-4.554l1.527-2.48
				c-0.029,0.253-0.067,0.496-0.124,0.729c0.39-0.446,0.895-1.073,1.453-1.793C39.569,11.226,38.719,12.395,38.719,12.395z"/>
			<path class="st6" d="M40.471,19.399c-0.702,2.801-3.153,4.904-3.854,7.355c-0.524,1.839-1.949,5.418-2.275,8.93l-0.524,0.176
				c-0.31-2.865-0.701-5.992-0.701-6.656c0-1.05,2.102-3.5,3.853-7.004c1.751-3.502,2.801-7.354,2.801-9.104
				c0-1.221-0.168-3.626-0.271-4.976c0.025-0.032,0.051-0.063,0.078-0.098c0.164,0.615,0.51,1.519,1.244,2.62
				C42.222,12.744,41.171,16.599,40.471,19.399z"/>
			<path class="st6" d="M45.898,21.149c0,0.789-2.627,6.567-1.575,8.932c0.646,1.457-0.5,4.203-1.477,6.103
				c-0.432-0.067-0.801-0.125-1.112-0.175c0.053-1.75,0.181-4.067,0.487-5.141c0.525-1.839,2.364-11.294,2.364-13.134
				c0-1.314-2.426-7.751-3.804-11.3c0.169-0.221,0.336-0.443,0.505-0.671c3.077,4.227,4.087,9.871,4.087,9.871
				S45.898,20.362,45.898,21.149z"/>
			<path class="st6" d="M48.788,17.473l0.525,10.77c0,0,0.804,3.558,0.515,5.213c-0.228,0.105-0.433,0.223-0.616,0.349
				c-0.249-1.264-0.848-4.855-0.424-8.451c0.525-4.465-1.05-3.94-1.575-7.618c-0.526-3.676-0.789-9.979-1.314-10.767
				c-0.325-0.486-1.94-2.064-3.134-3.207c0.15-0.207,0.3-0.412,0.447-0.617c1.748,0.93,3.475,2.51,3.475,2.51L48.788,17.473z"/>
			<path class="st6" d="M51.678,13.008l1.839,7.091c0,0-0.232,4.126,2.691,6.485c-0.022,0.042-0.05,0.084-0.076,0.128
				c-1.126-0.485-3.666-1.709-3.666-2.935c0-1.577-1.576-8.669-1.838-9.719c-0.264-1.051-2.103-7.091-2.627-8.142
				c-0.34-0.678-2.527-2.55-4.045-3.799c0.155-0.212,0.305-0.421,0.453-0.626c2.14,0.852,4.642,2.323,4.642,2.323L51.678,13.008z"/>
			<path class="st6" d="M59.409,2.629C53.48,3.216,49.154-1.032,47.246-3.375c0.046-0.158,0.1-0.314,0.168-0.471
				c6.137,4.81,8.4,4.453,12.062,5.965C59.455,2.292,59.436,2.467,59.409,2.629z"/>
			<path class="st6" d="M12.131-28.952c0.181-0.578,0.344-1.133,0.493-1.673c6.868,2.604,9.81,2.712,11.064,2.302
				c0.047,0.575,0.107,1.165,0.183,1.767C20.36-25.964,14.747-27.921,12.131-28.952z"/>
			<path class="st6" d="M14.116-37.948c4.471,3.595,7.537,4.923,9.628,5.171c-0.125,0.761-0.172,1.643-0.153,2.612
				c-2.644-0.528-7.598-3.26-9.974-4.632C13.997-36.743,14.116-37.948,14.116-37.948z"/>
			<path class="st6" d="M58.508,5.391c-0.007,0.021-0.007,0.044-0.009,0.068C51.431,6.115,46.732,1.45,45.807-0.455
				c0.04-0.059,0.085-0.121,0.125-0.178c4.142,4.111,9.847,5.289,12.773,5.623C58.589,5.242,58.508,5.391,58.508,5.391z"/>
			<path class="st6" d="M54.107,11.911L52.202,7.23c2.378,2.614,3.917,5.675,3.917,5.675l2.701,5.093
				c-0.131,1.312-0.357,2.651-0.723,3.989l-1.068-5.031L54.107,11.911z"/>
			<path class="st6" d="M55.88,8.805l-2.626-2.101l3.152,0.788l1.575,2.363l0.826,1.083c0.054,0.682,0.101,1.401,0.132,2.152
				l-1.746-1.922L55.88,8.805z"/>
			<path class="st6" d="M3.345,25.353l0.264-4.203c0,0,2.626-8.405,2.889-9.193c0.263-0.787,1.839-7.615,4.992-9.717
				c0,0-1.575,6.304-3.153,7.616c-1.291,1.078-1.576,8.931-2.102,10.507c-0.526,1.576-0.788,6.04-0.788,8.143
				c0,0.87,0,1.774,0,2.549l-0.967-0.156l-0.871-1.868L3.345,25.353z"/>
			<path class="st6" d="M-5.485,6.207l-1.645,7.188l2.332,3.814l2.254,4.338l0.634,6.21l-0.083,3.481
				c-0.405,0.149-0.851,0.312-1.337,0.488l-0.839-1.396l0.145-6.091l-1.415-2.876l-2.333-3.816l-0.343,3.934
				c0,0-0.764,4.933-0.925,5.97c-0.161,1.039-1.76,4.513-1.76,4.513l-0.943,2.492c-0.98,0.284-1.99,0.566-3.032,0.84l1.559-3.176
				l1.983-7.668l0.883-5.709l1.422-4.032c0,0,1.004-6.491,0.866-7.309C-8.201,6.584-9.555,1.59-9.555,1.59l-3.511-4.797
				l-0.361-0.451c0.604-0.089,1.229-0.218,1.866-0.368l2.845,3.62L-5.485,6.207z"/>
			<path class="st6" d="M-2.959-2.227l2.89,4.991l0.525,3.413c0,0,0.263,3.94,0.263,4.991c0,1.05-0.263,6.04-0.263,6.04l0.525,8.144
				l0.573,5.068l-0.655-0.106c-1.232-3.342-2.019-12.58-2.019-12.58s-0.788-6.829-0.788-8.142c0-1.313-0.789-6.828-1.577-8.403
				C-4.271-0.387-6.11-4.065-6.11-4.065L-7.013-5.51c0.243-0.103,0.478-0.211,0.715-0.319l2.026,2.027L-2.959-2.227z"/>
			<path class="st6" d="M4.396-0.387c0,0,0.263,2.626,0.525,3.414S3.608,13.532,3.608,13.532L2.82,4.078L1.77-0.387l-5.998-6.48
				c0.546-0.301,1.075-0.619,1.589-0.952l0.206,0.077L4.396-0.387z"/>
			<path class="st6" d="M-22.134,4.866c-1.05,2.364-4.727,5.252-5.516,11.293c-0.788,6.041-1.051,5.253-1.838,6.566
				c-0.788,1.313-6.041,7.881-6.041,7.881l-5.879,5.877c-0.627-0.267-1.211-0.584-1.765-0.935c0.745-1.121,1.836-2.329,3.439-3.367
				c4.466-2.89,3.941-6.044,4.991-6.829c1.05-0.787,5.254-6.042,5.517-7.092c0.263-1.052,0.524-4.729,0.524-5.517
				s4.203-8.142,4.203-8.142l3.677-7.617l0.369-1.034c0.27,0.079,0.55,0.136,0.828,0.199c-0.037,0.457-0.083,0.924-0.146,1.359
				C-20.031-0.65-21.083,2.503-22.134,4.866z"/>
			<path class="st6" d="M-22.134,23.777l-2.101,9.719c0,0-3.152,3.414-3.94,3.938c-0.149,0.102-0.426,0.25-0.794,0.425
				c-1.835,0.142-3.628,0.186-5.334,0.096c3.058-2.994,8.071-8.565,7.705-12.603c-0.527-5.778,1.313-9.456,2.101-11.294
				c0.688-1.604,6.17-11.4,7.386-17.54c0.2,0.014,0.413,0.005,0.618,0.007c-0.368,5.67-4.852,18.583-4.852,18.583L-22.134,23.777z"
				/>
			<path class="st6" d="M-12.152,10.643c-1.05,3.94-3.151,9.72-4.202,12.871c-1.051,3.153-3.939,12.083-3.939,12.083l-0.108,1.019
				c-0.614,0.127-1.231,0.245-1.851,0.357l3.535-13.195c0,0,2.101-10.245,2.363-11.033c0.262-0.788,2.364-2.626,1.575-8.142
				c-0.42-2.953-0.666-5.932-0.803-8.068c0.234-0.009,0.478-0.033,0.717-0.051c0.643,2.173,1.479,4.862,1.926,5.756
				C-12.152,3.815-11.102,6.704-12.152,10.643z"/>
			<path class="st6" d="M-28.175,1.451c-1.05,1.313-2.627,5.253-4.991,8.93c-2.363,3.678-1.313,4.728-2.101,8.143
				s-1.576,4.99-4.466,8.931c-2.89,3.939-7.004,4.202-7.004,4.202c-0.628-0.571-1.355-1.596-2.182-2.921l0.518-0.23l3.415-1.576
				l2.626-1.839l3.679-4.466c0,0,2.362-6.829,2.362-7.616c0-0.789,2.627-5.516,2.627-5.516l3.152-4.728c0,0,2.627-6.304,2.627-7.092
				c0-0.447,0.932-1.488,2.17-2.592c0.65,0.545,1.339,1.042,2.072,1.473l-0.564,2.169C-24.234-3.277-27.125,0.138-28.175,1.451z"/>
			<path class="st6" d="M-51.802,23.707l3.264-2.43c0.231,0.542,0.47,1.068,0.723,1.563l-3.842,1.174
				C-51.709,23.912-51.757,23.81-51.802,23.707z"/>
			<path class="st6" d="M-33.517-2.891c-0.562,1.031-6.217,12.4-8.173,15.746c-1.957,3.349-2.411,8.854-2.411,8.854l-3.7,1.128
				c-0.142-0.61-0.28-1.208-0.417-1.798l2.361-1.76c0.798-0.232,0.428-4.714,1.814-6.77c1.386-2.053,6.376-9.5,7.483-11.037
				c1.104-1.538,0.681-4.445,2.572-5.955c1.893-1.512,4.609-4.046,5.688-4.796c0.039-0.028,0.082-0.063,0.123-0.097
				c0.33,0.402,0.674,0.791,1.033,1.165c-0.055,0.182-0.109,0.354-0.162,0.544C-28.211-4.282-32.954-3.922-33.517-2.891z"/>
			<path class="st6" d="M-39.229-4.325c-1.662,1.76-2.824,4.071-3.41,5.357c-0.589,1.286-3.438,5.885-3.438,5.885l-3.637,0.396
				c0.065-0.51,0.154-1.023,0.263-1.536l1.862-0.248c0,0,3.911-4.809,4.474-5.57c0.562-0.764,2.925-6.171,3.8-7.972
				c0.87-1.789,6.923-3.327,9.104-4.276c0.225,0.37,0.458,0.734,0.698,1.093l-3.719,2.423C-33.231-8.773-37.566-6.086-39.229-4.325z
				"/>
			<path class="st6" d="M-35.528-15.097c-0.263,0.788-3.679,3.678-4.467,4.202c-0.535,0.357-3.009,0.835-4.541,1.104
				c0.048-0.541,0.089-1.095,0.123-1.657c1.354-0.393,3.036-0.875,3.631-1.022c1.05-0.264,2.364-1.839,3.151-2.364
				c0.788-0.524,1.051-2.364,1.313-3.152c0.199-0.595,0.997-1.04,2.838-1.673c0.156,0.479,0.321,0.959,0.497,1.438l-0.182,0.234
				C-33.166-17.986-35.267-15.884-35.528-15.097z"/>
			<path class="st6" d="M-37.893-18.248c-2.627,2.364-3.941,1.313-3.941,1.313l-2.449-0.919c-0.005-0.413-0.01-0.824-0.019-1.237
				c0.647,0.031,1.189,0.055,1.416,0.055c0.788,0,2.103,0.264,2.89,0.264c0.788,0,3.415-2.103,3.415-2.103l2.042-2.497
				c0.107,0.438,0.224,0.885,0.346,1.338C-35.276-21.292-35.438-20.462-37.893-18.248z"/>
			<path class="st6" d="M-36.055-25.079c-0.788,0.527-3.415,1.84-5.253,2.103c-0.787,0.112-2.005-0.063-3.143-0.304
				c-0.032-0.657-0.066-1.304-0.104-1.941c0.846-0.062,2.027-0.119,3.509-0.119c3.152,0,2.626-0.788,3.939-1.575
				c0.594-0.357,1.13-0.707,1.64-1.015c0.099,0.597,0.21,1.229,0.34,1.896C-35.354-25.714-35.672-25.333-36.055-25.079z"/>
			<path class="st6" d="M-44.783-28.689c-0.063-0.848-0.124-1.659-0.186-2.426l0.771,0.259c0,0,4.465,0,5.517-0.264
				c1.05-0.263,2.626-1.664,2.626-1.664s0.048,0.842,0.214,2.236c-1.563,0.783-4.443,1.823-6.519,2.055
				C-43.205-28.398-44.045-28.513-44.783-28.689z"/>
		</g>
		<polygon class="st6" points="-50.764,20.624 -52.077,13.008 -54.441,9.066 -56.806,5.129 -58.118,-8.793 -56.543,-26.654 
			-58.381,-20.35 -58.907,-9.58 -58.118,2.503 -55.754,9.066 -53.391,14.845 		"/>
		<polygon class="st6" points="23.047,-35.584 25.673,-38.211 22.784,-39.263 17.531,-38.736 19.633,-36.374 		"/>
		<polygon class="st6" points="-42.885,-35.322 -44.459,-37.424 -35.267,-38.736 -33.954,-36.898 -36.318,-34.797 		"/>
		<path class="st6" d="M54.566,19.836c0-1.305-1.059-2.363-2.364-2.363c-1.305,0-2.363,1.059-2.363,2.363
			c0,1.308,1.059,2.364,2.363,2.364C53.508,22.2,54.566,21.144,54.566,19.836z"/>
		<path class="st15" d="M53.517,19.836c0-0.725-0.59-1.313-1.314-1.313c-0.726,0-1.313,0.588-1.313,1.313
			c0,0.727,0.587,1.313,1.313,1.313C52.927,21.149,53.517,20.563,53.517,19.836z"/>
		<polygon class="st6" points="51.152,-0.125 49.969,-6.452 51.194,-7.326 		"/>
	</g>
</symbol>
<symbol  id="bldng" viewBox="-18.065 -22.753 36.131 45.507">
	<polygon class="st6" points="5.108,-18.532 5.144,-19.23 -0.163,-19.341 -0.071,-14.761 	"/>
	<g>
		<polygon class="st6" points="6.051,-17.345 10.309,-20.243 10.309,-17.665 6.053,-13.756 		"/>
		<polygon class="st6" points="5.215,-12.89 -0.071,-7.431 -0.058,-12.459 5.215,-16.887 		"/>
	</g>
	<g>
		<polygon class="st6" points="6.053,-6.425 6.053,-10.807 10.618,-15.523 10.618,-11.141 		"/>
		<polygon class="st6" points="5.215,-5.559 -0.071,-0.099 -0.071,-4.481 5.215,-9.941 		"/>
	</g>
	<g>
		<polygon class="st6" points="-11.261,11.03 -1.504,21.822 -1.504,-20.977 -11.26,-21.08 		"/>
		<g>
			<polygon class="st6" points="5.215,1.771 -0.071,7.231 -0.071,2.849 5.215,-2.611 			"/>
			<polygon class="st6" points="6.053,0.906 6.053,-3.476 10.618,-8.191 10.618,-3.811 			"/>
		</g>
		<g>
			<polygon class="st6" points="5.215,9.104 -0.071,14.563 -0.071,10.182 5.215,4.72 			"/>
			<polygon class="st6" points="6.053,8.237 6.053,3.854 10.618,-0.861 10.618,3.521 			"/>
		</g>
		<g>
			<polygon class="st6" points="5.215,17.24 5.265,17.24 -0.071,22.753 -0.071,17.512 5.215,12.052 			"/>
			<polygon class="st6" points="6.053,16.427 6.053,11.186 10.618,6.47 10.618,11.71 			"/>
		</g>
	</g>
	<g>
		<path class="st6" d="M-18.065-20.657c0,0,0.141-0.032,0.406-0.082c0.265-0.055,0.653-0.118,1.147-0.2
			c0.494-0.076,1.094-0.143,1.782-0.205c0.688-0.055,1.464-0.082,2.311-0.078c1.936,0.012,3.859,0.229,5.787,0.487
			c0.529,0.076,1.067,0.163,1.612,0.259c0.545,0.095,1.096,0.195,1.652,0.294c1.111,0.207,2.24,0.418,3.369,0.634
			c1.129,0.201,2.257,0.406,3.369,0.564c0.556,0.085,1.107,0.157,1.652,0.216s1.083,0.109,1.612,0.149
			c1.935,0.092,3.857,0.111,5.787-0.191c0.847-0.133,1.624-0.316,2.311-0.516c0.688-0.189,1.288-0.413,1.782-0.612
			c0.493-0.192,0.882-0.386,1.146-0.513c0.265-0.131,0.406-0.206,0.406-0.206s-0.142,0.03-0.406,0.08
			c-0.265,0.055-0.653,0.117-1.146,0.199c-0.494,0.076-1.094,0.143-1.782,0.204c-0.687,0.055-1.464,0.081-2.311,0.079
			c-1.935-0.013-3.859-0.232-5.787-0.49c-0.529-0.075-1.067-0.163-1.612-0.258c-0.544-0.094-1.096-0.192-1.652-0.292
			C2.257-21.344,1.129-21.552,0-21.766c-1.129-0.203-2.258-0.406-3.369-0.565c-0.556-0.084-1.107-0.154-1.652-0.214
			c-0.545-0.059-1.083-0.11-1.612-0.148c-1.935-0.092-3.857-0.111-5.787,0.191c-0.846,0.13-1.623,0.316-2.311,0.513
			c-0.688,0.191-1.288,0.416-1.782,0.612c-0.494,0.192-0.882,0.385-1.147,0.512C-17.924-20.734-18.065-20.657-18.065-20.657z"/>
	</g>
</symbol>
<path class="st0" d="M179.636,324.349c1.626,2.568,0.552,6.965,1.549,9.831c0.954,2.74,3.25,6.141,4.93,8.552
	c12.507,17.948,22.691,36.372,27.159,58.277c1.425,6.987,0.099,14.483,0.724,21.583c0.648,7.365,2.632,14.462,5.427,21.214
	c3.001,7.254,2.978,11.701,2.931,19.798c-0.043,7.584-0.577,15.548,1.351,22.962c1.649,6.344,5.629,11.837,5.566,18.615
	c-0.068,7.291-3.326,15.077-0.671,22.236c3.616,9.751,15.64,14.556,25.092,15.979c25.798,3.884,55.226,1.76,81.36,1.325
	c6.517-0.108,13.5-0.007,19.96-0.655c6.001-0.603,10.543-5.258,16.231-6.992c7.191-2.194,14.925-1.454,22.291-2.509
	c16.01-2.292,31.438-7.899,44.92-16.887c15.004-10.002,23.11-24.522,37.27-35.604c14.155-11.078,30.051-22.138,38.682-38.452
	c2.497-4.722,2.297-9.019,3.568-13.988c1.895-7.406,6.527-11.012,11.284-16.475c7.223-8.295,5.15-21.434,7.47-31.585
	c2.937-12.854,8.156-25.037,11.743-37.701c2.668-9.42,7.502-18.005,9.838-27.525c5.388-21.957-5.179-37.511-16.101-55.17
	c-9.01-14.567-19.452-25.26-26.222-40.958c-5.286-12.26-11.002-24.714-15.098-37.439c-4.279-13.295-11.855-24.077-19.085-35.971
	c-6.447-10.608-11.288-23.357-21.831-30.746c-11.769-8.249-27.281-8.751-40.639-12.794c-13.199-3.995-27.127-5.822-40.808-7.195
	c-10.25-1.028-17.869-5.441-27.597-9.152c-14.754-5.629-28.21-9.056-44.048-9.117c-9.956-0.038-20.202,0.371-30.015,2.165
	c0.931-0.087,1.87-0.184,2.801-0.255c-10.73,1.488-19.226,9.182-27.025,16.079c-4.265,3.771-8.388,7.73-12.958,11.141
	c-2.415,1.802-12.644,5.688-13.61,7.584c-0.051,0.1,0.593,0.189,0.498,0.332c-6.422,3.6-13.871,5.759-20.472,9.24
	c-11.204,5.907-21.534,8.754-34.198,9.158c-13.845,0.441-29.339-2.892-42.495,2.675c-10.419,4.408-25.718,13.804-37.409,12.741
	c-4.782-0.435-14.031,5.343-18.454,7.471c-5.539,2.665-12.354,8.656-14.366,14.677c-2.446,7.322,2.208,9.587,7.202,13.96
	c4.391,3.845,3.905,4.759,4.046,10.686c0.397,16.711,3.8,33.175,4.729,49.85c0.829,14.899,2.764,29.266,11.958,41.619
	c6.125,8.23,18.065,19.889,28.685,21.309c7.928,1.06,15.488,3.697,23.288,5.348c7.586,1.606,15.397,0.746,22.885,2.354
	c4.604,0.988,14.796,4.505,17.499,8.169C179.529,324.186,179.584,324.267,179.636,324.349z"/>
<path class="st8" d="M328,283l18-35l4-11v-18l17-34c0,0,6-12,20-9c0,0,5-3,5-9c0,0-9-7.5-4.5-27.5c0,0,16-27.5,12-38.5l6.5-24"/>
<g>
	<path class="st7" d="M328,76.5c1.303,8.408,3.302,17.497,3.766,25.958c0.772,14.076,2.029,27.924,1.734,42.041
		c-0.237,11.408,5.236,22.007,5.813,33.589c0.568,11.429-3.945,29.661-10.313,38.287c-7.126,9.651-12.948,23.484-7.46,35.346
		c4.301,9.296,5.503,20.548,1.96,30.278"/>
</g>
<path class="st8" d="M320,280.5c-6.112-11.737-12.633-18.545-21.053-27.986c-3.543-3.974-3.801-11.184-7.485-14.499
	c-4.371-3.933-12.679-3.685-17.859-7.918c-4.842-3.957-5.031-5.598-13.003-4.971c-6.459,0.508-9.667,3.69-15.071,5.604
	c-13.618,4.821-24.58-1.946-34.54-9.653C196.149,209.595,183.887,197.01,164,196.5c-20.186-3.848-34.306-13.578-52.151-22.971
	c-6.812-3.586-13.946-3.064-21.38-3.534c-5.127-0.324-12.347,0.543-16.872-1.736c-6.616-3.332-7.543-13.316-14.872-15.354
	c-3.981-1.107-7.407,0.408-11.667-0.999c-4.031-1.332-7.194-4.158-11.342-5.384c-4.8-1.419-9.928-1.131-14.699-2.777
	c-6.793-2.343-6.215-7.947-10.344-11.962c-4.012-3.902-9.777-3.036-14.04-4.429c-4.294-1.404-8.634-4.69-12.633-6.855"/>
<path class="st8" d="M323.5,284.5c-7.286,5.798-19.248,3.877-24.216,12.715c-4.82,8.576-1.175,15.713-12.532,20.516
	c-9.871,4.175-20.211-0.892-30.171,3.781c-6.585,3.09-9.729,10.108-15.53,14.15c-6.278,4.375-14.804,4.732-19.934,10.874
	c-6.185,7.404-4.085,15.62-3.233,24.396c2.026,20.863-4.035,23.219-22.699,23.209c-18.725-0.009-23.452,13.687-30.879,28.729
	c-3.61,7.311-6.323,9.546-13.431,13.658c-4.631,2.707-8.829,8.014-13.597,10.054c-7.469,3.196-18.063-3.078-24.764,2.853
	c-4.915,4.351-2.686,12.708-6.857,17.729c-5.719,6.887-17.881,4.346-25.551,5.927c-12.728,2.623-16.226,13.609-26.704,18.29
	c-11.487,5.132-10.4-9.231-21.902-12.38"/>
<path class="st13" d="M326.5,286.5c-8.884,15.035-11.988,26.306-28.806,34.361c-7.23,3.463-5.749,4.363-9.086,10.451
	c-3.964,7.231-9.844,11.088-12.413,20.289c-2.667,9.558-1.872,18.977-3.219,28.642c-1.367,9.807-6.222,14.536-11.426,22.378
	c-5.054,7.615-9.259,14.478-11.657,22.982c-2.286,8.107-3.831,15.436-11.798,20.196c-9.875,5.901-11.111,2.893-15.958,13.607
	c-2.453,5.422-7.778,8.114-11.005,12.837c-3.155,4.617-3.692,10.178-6.485,14.934c-2.831,4.819-6.141,5.241-9.403,8.906
	c-6.705,7.532-4.574,16.921-13.889,23.064c-9.594,6.326-21.23,4.096-31.407,8.29c-10.674,4.398-20.174,13.83-29.449,20.562"/>
<path class="st8" d="M324.5,289.5c5.332,4.091,8.123,10.629,13.448,14.672c4.302,3.267,14.232,7.774,19.442,9.043
	c5.013,1.219,10.64-1.653,14.245,3.753c2.941,4.409,2.08,14.367,3.696,19.56c3.501,11.248,9.013,14.279,17.087,21.316
	c8.865,7.727,6.416,15.814,3.829,25.48c-1.521,5.682-1.363,13.228,1.506,18.489c2.964,5.436,6.141,5.018,10.982,7.735
	c4.15,2.329,4.408,3.192,6.958,7.556c6.926,11.853,23.817,18.276,28.82,30.081c9.181,3.66,5.419,12.099,8.114,19.446
	c3.776,10.296,14.317,5.182,16.944,16.818c1.489,6.595,1.284,6.872,6.438,11.911c2.376,2.322,5.39,4.81,7.616,7.249
	c4.159,4.559,2.402,10.504,6.247,14.604c3.374,3.597,10.235,2.568,14.73,4.03c4.146,1.349,8.015,4.323,12.234,5.181
	c5.667,1.152,10.897-0.992,15.16,4.575"/>
<path class="st8" d="M329.5,286c6.716-7.991,19.396-3.31,27.075-10.603c4.883-4.638,9.14-10.485,15.152-13.739
	c4.263-2.307,8.242-1.317,12.416-2.729c7.227-2.446,12.435-8.215,18.768-12.171c2.518-1.573,7.163-2.398,9.22-4.119
	c1.437-1.202,2.184-4.388,3.548-6.033c4.858-5.848,15.517-8.403,22.094-11.715c3.825-1.926,8.686-3.778,11.725-6.912
	c3.724-3.84,2.885-8.722,5.89-12.874c3.028-4.183,4.115-4.692,5.888-9c4.106-9.985,6.805-12.702,17.023-7.654
	c3.384,1.672,7.238,3.851,11.033,4.329c6.479,0.817,4.939-0.56,7.771-4.547c4.356-6.134,10.949-12.729,14.828-19.512
	c5.217-9.125,9.271-7.867,19.128-7.628c5.416,0.131,21.886,1.554,24.442-5.092"/>
<path class="st5" d="M375,330c5.461,9.6,25.226,8.387,34.457,14.298c9.309,5.962,11.391,5.751,23.149,4.718
	c17.606-1.548,29.914,7.916,46.36,9.563c9.513,0.953,19.022,1.954,28.534,2.921c-0.501,3.333-1.001,6.667-1.502,10
	c4.617-0.012,11.359-1.357,15.703,0.012c4.616,1.455,6.677,5.94,11.338,8.469c7.771,4.216,27.944,12.969,36.46,11.52"/>
<text transform="matrix(0.6132 -0.005 0.0082 1 269.2837 39.4521)" class="st12 st3 st19">HYDERABAD</text>
<rect x="491.965" y="564.437" class="st13" width="114" height="45"/>
<text transform="matrix(1 0 0 1 491.9648 583.9727)" class="st16 st20">Project -</text>
<use xlink:href="#bldng"  width="36.131" height="45.507" x="-18.065" y="-22.753" transform="matrix(1 0 0 -1 400.0977 196.2686)" style="overflow:visible;"/>
<use xlink:href="#bldng"  width="36.131" height="45.507" x="-18.065" y="-22.753" transform="matrix(1 0 0 -1 172.6465 241.1558)" style="overflow:visible;"/>
<use xlink:href="#bldng"  width="36.131" height="45.507" x="-18.065" y="-22.753" transform="matrix(1 0 0 -1 240.0889 218.0352)" style="overflow:visible;"/>
<use xlink:href="#bldng"  width="36.131" height="45.507" x="-18.065" y="-22.753" transform="matrix(1 0 0 -1 327.0371 241.7969)" style="overflow:visible;"/>
<use xlink:href="#bldng"  width="36.131" height="45.507" x="-18.065" y="-22.753" transform="matrix(1 0 0 -1 319.5039 287.5435)" style="overflow:visible;"/>
<use xlink:href="#bldng"  width="36.131" height="45.507" x="-18.065" y="-22.753" transform="matrix(1 0 0 -1 357.1084 289.084)" style="overflow:visible;"/>
<use xlink:href="#bldng"  width="36.131" height="45.507" x="-18.065" y="-22.753" transform="matrix(1 0 0 -1 399.4287 352.2402)" style="overflow:visible;"/>
<use xlink:href="#bldng"  width="36.131" height="45.507" x="-18.065" y="-22.753" transform="matrix(1 0 0 -1 577.0703 572.9004)" style="overflow:visible;"/>
<use xlink:href="#Airport"  width="366.804" height="17.157" id="XMLID_1_" x="-8.179" y="-8.579" transform="matrix(1.8795 0.7912 0.6783 -1.6112 280.043 494.7881)" style="overflow:visible;"/>
<use xlink:href="#Compass_Rose"  width="51.152" height="60.64" x="-25.576" y="-30.321" transform="matrix(1 0 0 -1 556 57.999)" style="overflow:visible;"/>
<rect x="372.273" y="219.626" class="st13" width="116" height="25"/>
<text transform="matrix(1 0 0 1 372.2734 226.7266)" class="st4 st10 st17">A S Rao Nagar</text>
<rect x="319.776" y="263.876" class="st13" width="98.224" height="15.124"/>
<text transform="matrix(1 0 0 1 319.7764 270.9766)" class="st2 st10 st17">Secundarabad</text>
<rect x="147.776" y="264.876" class="st13" width="98.224" height="15.124"/>
<text transform="matrix(1 0 0 1 147.7764 271.9766)" class="st2 st10 st17">Gachibowli</text>
<rect x="258.776" y="295.877" class="st13" width="98.224" height="15.123"/>
<text transform="matrix(1 0 0 1 258.7764 302.9766)" class="st2 st10 st17">Banjara Hills</text>
<rect x="380.776" y="373.877" class="st13" width="98.224" height="15.123"/>
<text transform="matrix(1 0 0 1 380.7764 380.9766)" class="st2 st10 st17">L B Nagar</text>
<rect x="109.776" y="175.877" class="st13" width="98.224" height="15.123"/>
<text transform="matrix(1 0 0 1 109.7764 182.9766)" class="st2 st10 st17">BHEL</text>
<rect x="305.704" y="327.916" class="st13" width="98.224" height="15.123"/>
<text transform="matrix(1 0 0 1 305.7041 336.4355)" class="st2 st22 st18">Hyderabad</text>
<use xlink:href="#bldng"  width="36.131" height="45.507" x="-18.065" y="-22.753" transform="matrix(1 0 0 -1 334.0361 329.7402)" style="overflow:visible;"/>
<rect x="290.704" y="405.3" class="st13" width="98.224" height="28.355"/>
<text transform="matrix(1 0 0 1 290.7041 413.8203)"><tspan x="0" y="0" class="st2 st22 st18">Nehru Zoological </tspan><tspan x="0" y="14.399" class="st2 st22 st18">Park</tspan></text>
<use xlink:href="#Zebra"  width="119.096" height="81.876" x="-59.547" y="-40.938" transform="matrix(0.2885 0 0 -0.2885 269.2764 413.8584)" style="overflow:visible;"/>
<rect x="310.776" y="148.877" class="st13" width="98.224" height="15.123"/>
<text transform="matrix(1 0 0 1 310.7764 155.9766)" class="st2 st10 st17">Kompally</text>
<rect x="161.734" y="288.096" class="st13" width="98.224" height="15.123"/>
<text transform="matrix(1 0 0 1 161.7344 295.1953)" class="st2 st10 st17">Manikonda</text>
<use xlink:href="#bldng"  width="36.131" height="45.507" x="-18.065" y="-22.753" transform="matrix(1 0 0 -1 184.0288 294.1196)" style="overflow:visible;"/>
<rect x="202.776" y="251.877" class="st13" width="98.224" height="15.123"/>
<text transform="matrix(1 0 0 1 202.7764 258.9766)" class="st2 st10 st17">Hi-tech City</text>
<rect x="100.776" y="369.877" class="st13" width="98.224" height="15.123"/>
<text transform="matrix(1 0 0 1 100.7764 376.9766)" class="st2 st10 st17">Chilkur</text>
<rect x="245.776" y="357.877" class="st13" width="98.224" height="15.123"/>
<text transform="matrix(1 0 0 1 245.7764 364.9766)" class="st2 st10 st17">Golkonda Fort</text>
<use xlink:href="#School"  width="7.672" height="13.576" id="XMLID_2_" x="-3.836" y="-6.788" transform="matrix(1.7097 0 0 -1.7382 232.4995 356.748)" style="overflow:visible;"/>
<rect x="297.704" y="484.3" class="st13" width="119.296" height="30.7"/>
<text transform="matrix(1 0 0 1 297.7041 492.8203)"><tspan x="0" y="0" class="st2 st22 st18">Rajiv Gandhi </tspan><tspan x="0" y="14.399" class="st2 st22 st18">International Airport</tspan></text>
<rect x="391.273" y="242.627" class="st13" width="116" height="25"/>
<text transform="matrix(1 0 0 1 391.2734 249.7266)" class="st4 st10 st17">Moula Ali</text>
</svg>
